<svg width="247" height="20" viewBox="0 0 247 20" fill="none" xmlns="http://www.w3.org/2000/svg">
<path d="M186.611 1.9682C186.095 1.95919 185.751 1.95318 185.234 1.94417C185.231 2.15734 186.607 2.18137 186.611 1.9682C189.364 2.01626 196.416 2.35258 198.131 2.75567C197.442 2.74365 197.097 2.79094 197.095 2.89753C197.611 2.95983 197.956 2.91254 198.131 2.75567C200.718 2.42768 207.063 3.81784 208.453 3.09578C210.346 3.12882 208.276 3.35923 209.477 3.59343C210.682 3.61446 211.714 3.63248 212.919 3.65351C213.088 3.81639 213.433 3.7691 213.435 3.66252C214.295 3.67754 214.466 3.78713 213.946 3.99129C214.634 4.0033 215.15 4.01231 215.839 4.02433C216.347 4.51297 217.387 4.05136 218.931 4.39815C219.099 4.61433 219.448 4.35387 218.931 4.39815C219.969 4.09642 219.786 4.73293 221.856 4.44922C221.853 4.60909 221.164 4.65037 221.332 4.86655C222.881 4.89358 222.197 4.66839 224.263 4.59785C222.709 4.89058 223.565 5.17206 225.29 4.93563C225.969 5.48058 227.181 5.12855 227.344 5.61119C232.504 5.86118 239.373 6.83402 242.62 8.17011C241.759 8.20839 242.433 9.01979 243.639 8.93423C243.635 9.2007 243.116 9.35156 242.599 9.39584C242.767 9.61202 243.28 9.78091 243.967 9.89951C242.585 10.1952 243.61 10.6396 243.597 11.3857C241.876 11.3557 244.101 12.0875 243.938 11.5516C244.625 11.6169 244.622 11.8301 244.446 12.0402C244.101 12.0875 243.928 12.1378 243.924 12.351C244.777 12.7923 247.529 12.947 245.454 13.4439C245.11 13.4379 244.766 13.4318 244.422 13.4258C244.764 13.5384 244.933 13.7013 245.449 13.7636C245.448 13.8169 245.446 13.9235 245.444 14.0301C233.197 15.4689 218.243 14.195 204.823 13.8008C186.931 13.222 170.066 12.9809 155.265 12.7759C155.267 12.6693 155.269 12.5627 155.271 12.4561C143.729 12.9477 130.994 12.7787 122.044 12.6758C121.526 12.7733 122.208 13.1584 120.493 12.8086C119.976 12.7996 120.325 12.5391 120.493 12.8086C120.659 13.1314 118.771 12.8319 118.082 12.8731C117.392 12.9144 117.741 12.654 118.082 12.8731C99.8284 13.2475 76.0554 14.2719 59.5026 15.8488C60.5444 15.3339 59.5072 15.5823 58.4775 15.4044C59.5156 15.1027 62.2764 14.7244 62.9545 15.3227C63.8159 15.2844 62.9582 15.1095 62.9629 14.843C63.3071 14.849 63.9954 14.8611 63.9982 14.7012C65.2019 14.7755 66.0642 14.6839 66.412 14.4768C67.6166 14.4978 68.3059 14.4565 68.9961 14.3619C68.8296 14.0392 66.759 14.3229 66.412 14.4768C65.2084 14.4024 64.3461 14.494 63.9982 14.7012C60.5546 14.7477 58.137 15.1853 55.0358 15.3444C55.5557 15.1402 55.5585 14.9803 54.5279 14.8557C53.1456 15.1515 50.3931 15.0501 50.0378 15.6836C49.8657 15.6806 49.6936 15.6776 49.5216 15.6746C49.5243 15.5147 48.836 15.5027 48.1477 15.4907C48.1495 15.3841 47.9774 15.3811 47.6333 15.3751C47.81 15.1116 48.4983 15.1236 48.6741 14.9135C49.1904 14.9225 49.5346 14.9285 50.0508 14.9375C50.3913 15.1567 50.7392 14.9495 50.0508 14.9375C51.6043 14.6981 51.262 14.5855 51.6126 14.2184C52.474 14.1802 52.6424 14.3963 53.6758 14.3611C55.0525 14.3851 52.4777 13.967 54.5409 14.1096C54.8813 14.3288 55.2302 14.0684 54.5409 14.1096C54.7176 13.8462 55.7474 14.0241 56.0897 14.1367C56.6143 13.666 57.4654 14.214 57.6468 13.6841C58.3352 13.6961 58.6784 13.7554 59.0207 13.868C59.71 13.8267 59.5416 13.6105 59.5453 13.3973C61.7918 12.9035 63.495 13.9461 64.5386 13.3246C65.3981 13.3929 65.4009 13.233 66.0893 13.245C65.92 13.0821 65.4037 13.0731 65.0595 13.0671C65.7525 12.8127 67.1292 12.8367 68.5068 12.8074C68.5041 12.9673 69.0212 12.923 69.5366 12.9853C70.0556 12.8345 69.5431 12.6123 70.4082 12.3609C69.5468 12.3991 68.8575 12.4404 68.5096 12.6476C67.8213 12.6356 67.133 12.6235 66.4446 12.6115C65.9283 12.6025 66.2762 12.3953 66.4446 12.6115C66.2669 12.9283 64.0345 12.6228 63.0001 12.7113C62.9964 12.9245 62.1313 13.1759 60.0663 13.1399C60.2421 12.9297 60.7602 12.8322 59.5556 12.8111C59.5584 12.6512 59.5612 12.4914 59.564 12.3315C59.9072 12.3908 60.0774 12.5004 60.0746 12.6603C61.1071 12.6783 61.6253 12.5807 61.6318 12.2077C59.2254 12.0057 55.0823 12.6797 53.7019 12.8689C50.9485 12.8208 48.5253 13.5782 46.6361 13.3319C48.8825 12.8381 52.1559 12.682 55.606 12.2624C55.099 11.7205 54.2311 12.1318 52.6833 12.0515C54.7576 11.5546 55.9604 11.6822 58.5472 11.4075C58.3705 11.671 56.6524 11.481 57.1603 11.9697C55.0972 11.8271 56.9799 12.4463 57.1603 11.9697C58.5407 11.7805 61.1155 12.1986 61.6448 11.4616C60.9639 11.0232 60.2607 11.8639 59.0579 11.7363C59.5844 11.1591 61.4792 11.0855 63.5461 11.015C63.5452 11.0683 63.5443 11.1216 63.5433 11.1748C62.6838 11.1065 62.681 11.2664 62.5052 11.4766C62.162 11.4173 62.1601 11.5239 61.9862 11.6274C62.5024 11.6365 62.5034 11.5832 62.5052 11.4766C63.3647 11.5449 63.5396 11.388 63.5433 11.1748C64.0596 11.1839 63.8838 11.394 64.054 11.5036C64.9154 11.4653 65.7767 11.4271 66.1246 11.2199C65.7842 11.0007 64.7461 11.3025 63.5461 11.015C63.5489 10.8551 63.8931 10.8611 64.068 10.7042C66.6483 10.8026 68.7162 10.6787 71.9942 10.2562C71.8174 10.5196 71.8109 10.8927 70.4351 10.8154C71.2881 11.2567 73.8759 10.9287 74.0536 10.612C73.8843 10.4491 73.5411 10.3898 73.0239 10.4341C73.2015 10.1173 75.2619 10.4198 74.9252 9.98749C75.9568 10.0588 76.474 10.0145 76.4796 9.69476C76.6516 9.69777 76.8237 9.70077 76.9958 9.70377C77.3279 10.4026 80.4403 9.60397 81.9882 9.6843C81.8207 9.41483 80.7864 9.50339 79.9259 9.48837C82.4998 9.95977 90.2725 8.44287 86.815 9.28877C86.2996 9.22647 85.9536 9.32704 85.9517 9.43363C86.1201 9.6498 86.8122 9.44865 86.815 9.28877C88.534 9.42539 89.5665 9.44342 91.292 9.20699C91.6324 9.42617 91.9803 9.21901 91.292 9.20699C91.2929 9.1537 91.2939 9.1004 91.2948 9.04711C99.9019 9.03742 104.043 8.47 112.649 8.5136C112.647 8.62019 112.646 8.72678 112.644 8.83336C110.752 8.74703 111.271 8.59616 109.718 8.7823C109.542 8.99246 112.812 9.04954 112.644 8.83336C115.566 9.0443 117.639 8.65401 121.079 8.82067C121.931 9.31532 122.289 8.52194 123.663 8.70584C123.66 8.86572 122.799 8.904 123.657 9.0256C123.655 9.13219 123.138 9.17647 123.136 9.28305C121.593 8.93626 120.205 9.55175 119.699 8.95652C119.003 9.42414 116.424 9.2192 115.215 9.46464C114.699 9.45563 114.182 9.44661 113.666 9.4376C113.832 9.81366 115.036 9.83468 115.215 9.46464C117.795 9.56299 120.55 9.50446 123.136 9.28305C124.509 9.52026 126.058 9.54729 127.097 9.19226C127.611 9.30786 128.126 9.42346 128.121 9.68992C128.638 9.64564 128.985 9.49177 128.99 9.2253C130.699 9.94815 133.298 8.98064 135.013 9.33044C134.323 9.42501 135.009 9.54361 135.013 9.33044C136.393 9.19459 136.219 9.29817 137.939 9.3815C137.935 9.59467 138.105 9.70426 138.449 9.71027C139.138 9.66899 138.454 9.4438 137.939 9.3815C137.94 9.27492 138.285 9.22763 138.459 9.12405C139.831 9.41454 139.484 9.56841 141.38 9.44158C139.647 10.1043 143.953 9.96627 141.38 9.44158C143.454 8.99799 145.329 10.0436 149.291 9.89951C149.123 9.63004 147.054 9.86046 147.924 9.28926C148.961 9.04082 150.849 9.39361 151.358 9.77567C148.78 9.57074 150.143 10.3942 151.356 9.93555C151.352 10.1487 151.87 10.0511 151.872 9.94456C152.557 10.1697 153.589 10.1878 153.768 9.81773C155.661 9.85077 155.492 9.63459 156.346 10.0227C157.553 9.9371 154.979 9.4657 156.359 9.27656C157.39 9.40117 158.767 9.4252 159.795 9.6564C159.958 10.1923 161.509 10.1128 162.716 9.97392C161.69 9.58285 160.652 9.88458 159.795 9.6564C162.724 9.54758 167.031 9.30292 170.637 9.84563C170.982 9.79835 171.328 9.69777 171.159 9.53489C171.506 9.38102 174.608 9.16862 174.081 9.74583C174.782 9.06504 175.968 10.1519 176.152 9.46212C176.49 9.84118 179.941 9.36833 179.585 10.0018C180.102 9.95755 180.106 9.74438 180.11 9.53121C183.721 9.75416 185.094 9.99136 188.539 9.83827C188.206 9.19275 186.473 9.85552 185.619 9.46745C186.141 9.1567 188.718 9.46822 190.096 9.38567C190.094 9.54555 189.745 9.806 189.577 9.53654C188.716 9.57481 189.055 9.90057 189.05 10.167C191.988 9.5253 194.553 10.4763 196.972 9.98545C196.118 9.59739 193.187 9.86608 191.468 9.72946C193.208 8.64035 197.661 9.94418 201.973 9.43305C201.969 9.64622 202.139 9.8091 202.828 9.76783C202.827 9.82112 202.826 9.87441 202.825 9.9277C202.48 9.97499 202.134 10.0756 201.446 10.0636C201.612 10.3863 202.129 10.3953 202.82 10.2475C204.355 11.0206 207.645 9.95852 208.84 10.5125C208.679 9.86996 203.855 10.1056 202.82 10.2475C202.822 10.1409 202.823 10.0343 202.825 9.9277C203.515 9.88643 203.172 9.77383 202.828 9.76783C205.42 9.22666 207.47 10.1154 210.403 9.74012C205.767 9.07279 200.254 9.29643 196.471 9.07047C198.026 8.72445 201.635 9.10729 203.874 9.03975C199.757 8.16827 194.067 8.76195 192.016 7.87322C190.481 7.10009 194.765 8.18775 195.463 7.66684C195.979 7.67585 196.495 7.68486 197.012 7.69387C197.189 7.37712 196.675 7.26152 196.506 7.04535C194.783 7.17518 196.5 7.41839 195.463 7.66684C194.947 7.60453 194.259 7.59251 194.436 7.32906C188.409 7.43709 184.468 6.40874 179.126 6.74196C179.129 6.52879 179.475 6.42822 179.65 6.27134C178.264 6.78024 175.01 5.87048 172.761 6.47095C172.245 6.46193 172.075 6.35234 171.732 6.29304C171.739 5.8667 170.015 5.99654 170.715 5.36905C173.465 5.57698 174.5 5.48842 176.735 5.63406C177.261 5.11014 173.656 4.51413 171.25 4.3122C171.247 4.47208 171.936 4.4308 172.279 4.4901C172.106 4.59369 171.759 4.74756 171.241 4.79184C171.244 4.63196 170.728 4.62295 170.212 4.61394C170.21 4.72052 170.898 4.73254 171.241 4.79184C171.24 4.89842 171.928 4.91044 172.272 4.91645C171.747 5.38707 171.58 5.1176 170.204 5.04028C170.366 5.6295 170.698 6.32831 168.293 6.07309C167.955 5.69404 168.133 5.37728 169.685 5.19114C166.767 4.71374 164.178 5.09502 161.26 4.61762C161.953 4.36317 165.043 4.89687 166.254 4.54485C166.084 4.38197 165.914 4.27238 165.399 4.21008C165.402 4.0502 165.404 3.89032 165.407 3.73044C165.238 3.56756 166.096 3.68916 165.407 3.73044C164.202 3.76271 164.195 4.13576 165.399 4.21008C165.221 4.52683 163.161 4.22432 162.298 4.31588C162.474 4.10572 163.162 4.17103 163.85 4.18304C163.508 4.07045 163.338 3.90757 163.342 3.6944C161.101 3.86852 160.588 3.69963 157.833 3.75815C158.001 3.97433 159.206 3.94206 159.895 3.95408C159.717 4.27083 157.485 3.96532 156.45 4.05388C157.836 3.54498 154.741 3.38433 153.02 3.35429C153.357 3.73335 155.08 3.6568 155.937 3.88499C155.242 4.24602 152.494 3.87821 150.944 3.95776C150.946 3.79788 150.776 3.68829 150.433 3.62899C150.607 3.52541 150.264 3.46611 149.919 3.4601C148.716 3.38578 150.252 4.15891 148.534 3.91571C148.535 3.86241 148.536 3.80912 148.537 3.75583C148.881 3.76184 148.884 3.60196 148.887 3.44208C148.543 3.43607 148.539 3.64924 148.537 3.75583C148.365 3.75282 148.193 3.74982 148.021 3.74682C148.024 3.58694 148.026 3.42706 148.029 3.26718C147.34 3.30846 147.507 3.57793 147.505 3.73781C146.299 3.77007 145.607 3.97123 144.06 3.83761C144.055 4.10407 145.607 3.97123 145.948 4.19041C145.945 4.35028 145.085 4.28197 144.568 4.32625C144.904 4.8119 148.008 4.49291 147.478 5.28329C147.135 5.1707 146.106 4.9928 145.929 5.25626C144.555 5.07235 144.721 5.4484 143.517 5.37408C143.338 5.74413 145.756 5.30655 144.886 5.82446C144.196 5.91903 145.055 6.04063 144.886 5.82446C145.405 5.67359 146.78 5.80421 146.442 5.42515C147.64 5.81922 148.508 5.4079 149.879 5.75169C150.396 5.7607 150.226 5.59782 150.4 5.49424C150.581 5.01761 152.464 5.63687 150.4 5.49424C149.712 5.48222 149.024 5.47021 148.507 5.46119C148.17 5.08214 147.32 4.42761 149.385 4.51694C148.346 4.81868 151.091 5.39967 151.444 4.87274C151.442 4.97933 151.44 5.08592 151.438 5.1925C153.157 5.32912 152.138 4.565 153.856 4.75492C154.369 4.92381 154.018 5.34414 155.396 5.26159C155.394 5.42147 155.911 5.37719 156.426 5.43949C156.429 5.27961 155.74 5.32089 155.396 5.26159C155.054 5.149 154.885 4.98611 154.889 4.77294C155.917 5.00414 156.782 4.75269 157.808 5.14376C158.15 5.30965 158.32 5.41924 158.835 5.48154C158.487 5.742 156.767 5.65867 157.274 6.20061C158.311 5.95216 157.794 5.94315 158.822 6.22764C158.82 6.38752 158.992 6.39052 159.336 6.39653C158.129 6.48209 155.545 6.59691 154.348 6.14954C153.659 6.19082 153.996 6.56988 152.966 6.44527C152.97 6.2321 153.66 6.13753 152.455 6.1165C152.456 6.06321 152.457 6.00991 152.458 5.95662C151.769 5.9979 152.111 6.11049 152.455 6.1165C148.322 6.20429 144.021 6.0759 138.513 6.03307C138.517 5.8199 138.347 5.71031 138.005 5.54443C137.66 5.59171 137.486 5.69529 137.484 5.85517C94.624 5.69345 44.0009 6.51571 5.01821 11.0595C5.20053 10.4763 4.32893 11.1008 3.12805 10.8666C2.45087 10.2151 2.11879 9.51628 2.12716 9.03664C2.29925 9.03965 2.47134 9.04265 2.64342 9.04566C2.47413 8.88277 2.12902 8.93006 2.12716 9.03664C1.10953 8.16594 1.79601 8.28454 1.13 6.9935C1.9895 7.06181 2.50948 6.85765 1.6509 6.73605C4.76985 5.56438 11.8384 4.94144 16.6605 4.81238C14.9304 5.31526 11.4896 5.2019 9.58826 5.64849C13.2011 5.76486 17.3498 4.7711 21.9971 4.79891C21.8287 4.58273 21.3143 4.46714 20.626 4.45512C23.7328 3.97626 26.6611 3.86745 31.4841 3.68509C31.4823 3.79168 31.4804 3.89826 31.4786 4.00485C30.274 3.98382 29.9344 3.71135 29.4107 4.12868C28.7224 4.11666 28.034 4.10465 28.0313 4.26453C27.8592 4.26152 27.6871 4.25852 27.515 4.25552C27.3457 4.09263 27.0006 4.13992 26.9987 4.2465C26.3104 4.23449 25.622 4.22247 25.4472 4.37935C25.103 4.37334 24.9309 4.37034 24.5867 4.36433C24.583 4.5775 25.4444 4.53923 25.4472 4.37935C26.1355 4.39136 26.9959 4.40638 26.9987 4.2465C27.1708 4.24951 27.3429 4.25251 27.515 4.25552C27.5122 4.41539 28.0294 4.37111 28.0313 4.26453C28.7196 4.27654 29.4079 4.28856 29.4107 4.12868C30.2712 4.1437 31.3018 4.2683 31.4786 4.00485C31.8227 4.01085 32.1669 4.01686 32.5111 4.02287C32.1688 3.91028 31.9995 3.74739 31.4841 3.68509C39.7592 2.97659 51.301 2.48504 59.7379 2.36576C59.2216 2.35675 59.3891 2.62621 59.2133 2.83638C60.4179 2.85741 61.1071 2.81613 61.2839 2.55267C60.9434 2.33349 60.5946 2.59395 59.7351 2.52563C59.736 2.47234 59.737 2.41905 59.7379 2.36576C60.776 2.06402 61.9825 1.97846 61.7974 2.72156C62.6578 2.73658 63.0047 2.58271 63.1796 2.42583C63.695 2.48814 64.0373 2.60073 64.7256 2.61274C65.4205 2.25171 63.0131 2.10307 63.1796 2.42583C63.3666 1.57615 73.3457 1.85696 76.0991 1.90502C73.5113 2.23301 67.8325 2.13389 65.2474 2.302C68.6817 2.78842 72.1356 2.15569 76.0945 2.17148C76.0917 2.33136 75.7466 2.37865 75.5726 2.48223C76.7754 2.60984 77.4786 1.76917 77.6377 2.51827C78.5046 2.16024 78.5055 2.10695 80.5733 1.98312C81.7789 1.95085 82.4663 2.01616 82.6337 2.28563C82.9826 2.02517 84.1909 1.83302 84.5267 2.31867C85.0429 2.32768 85.0467 2.11451 85.0504 1.90134C87.107 2.41701 88.8456 1.43449 90.0381 2.14832C89.3488 2.1896 90.0353 2.3082 90.0381 2.14832C90.7274 2.10705 90.3878 1.83457 91.0762 1.84659C91.5924 1.8556 92.1078 1.91791 92.4501 2.0305C92.6194 2.19338 92.9626 2.25268 93.478 2.31499C94.1663 2.327 93.9989 2.05753 94.5151 2.06654C97.0918 2.37806 97.7941 1.59069 100.893 1.53817C101.244 1.17113 98.4768 1.92246 99.0061 1.18537C103.827 1.1096 105.371 1.4031 108.82 1.09013C107.623 0.589465 106.064 1.14865 104.864 0.86116C110.21 0.314765 117.947 0.876277 124.666 0.567082C125.354 0.579097 125.186 0.362922 125.189 0.149752C149.974 0.315833 166.492 0.764071 186.614 1.80832C186.613 1.86161 186.612 1.9149 186.611 1.9682ZM159.434 0.747504C159.09 0.741496 158.402 0.729481 158.4 0.836067C158.744 0.842074 159.433 0.854089 159.434 0.747504ZM125.698 0.585104C127.421 0.508557 127.932 0.784031 128.271 1.1098C127.411 1.09478 126.551 1.02647 126.717 1.40252C128.097 1.21338 131.363 1.48362 132.229 1.17888C130.334 1.25243 129.48 0.864359 128.615 1.1158C128.791 0.905636 128.449 0.793042 128.279 0.630161C129.31 0.754769 130.515 0.775796 131.724 0.530359C129.488 0.438017 127.083 0.129502 125.698 0.585104ZM136.545 0.454587C136.365 0.931216 135.514 0.329979 134.652 0.421546C133.778 1.20592 138.26 0.80438 136.545 0.454587ZM141.53 0.861452C140.84 0.956022 141.698 1.07763 141.53 0.861452C142.218 0.873467 142.906 0.938776 143.082 0.728608C142.396 0.556715 141.88 0.547704 141.53 0.861452ZM143.598 0.73762C143.595 0.897497 143.592 1.05737 144.108 1.06639C144.112 0.853216 144.972 0.921527 144.975 0.76165C144.287 0.696341 144.289 0.589757 143.598 0.73762ZM133.617 0.563401C133.1 0.607681 132.24 0.53937 132.237 0.699248C132.754 0.708259 133.613 0.776572 133.617 0.563401ZM138.605 0.810388C137.914 0.904958 138.601 1.02356 138.605 0.810388C138.784 0.38705 140.667 1.00631 138.605 0.810388ZM140.153 0.837422C139.81 0.778122 140.496 0.950015 140.153 0.837422V0.837422ZM145.488 0.930539C145.317 0.874243 145.83 1.04313 145.488 0.930539V0.930539ZM150.481 0.857771C149.619 0.949337 147.559 0.646829 147.553 0.966584C148.414 0.928311 150.475 1.23082 150.481 0.857771ZM152.541 1.21357C153.752 0.861549 150.826 0.810484 150.995 1.02666C150.995 1.02666 152.714 1.16328 152.541 1.21357ZM153.06 1.0627C152.717 1.00341 153.23 1.17229 153.06 1.0627V1.0627ZM159.424 1.33372C163.564 0.872886 163.548 1.77886 159.424 1.33372V1.33372ZM163.898 1.41182C164.425 0.834613 164.404 2.00705 163.898 1.41182V1.41182ZM166.305 1.61375C166.134 1.55746 166.647 1.72635 166.305 1.61375V1.61375ZM172.331 1.55901C171.986 1.60629 171.298 1.54098 171.295 1.70086C171.64 1.65358 172.328 1.71888 172.331 1.55901ZM179.728 1.84805C179.556 1.79175 180.07 1.96064 179.728 1.84805V1.84805ZM142.551 1.51899C143.407 1.80047 144.101 1.49273 144.622 1.23528C143.589 1.21725 142.899 1.31182 142.551 1.51899ZM174.218 1.9118C174.047 1.85551 174.56 2.0244 174.218 1.9118V1.9118ZM176.286 1.78797C175.941 1.83526 175.253 1.76995 175.251 1.92983C175.596 1.88254 176.283 1.94785 176.286 1.78797ZM109.336 1.09914C111.231 1.02559 112.427 1.52625 112.783 0.839456C111.92 0.984314 109.858 0.788392 109.336 1.09914ZM113.294 1.16822C115.014 1.25155 115.872 1.37316 117.255 1.07743C116.052 0.94982 114.677 0.819205 113.294 1.16822ZM117.771 1.08644C117.6 1.03015 118.113 1.19904 117.771 1.08644V1.08644ZM121.213 1.14652C120.87 1.03393 118.982 0.73442 118.803 1.10447C119.147 1.16377 121.035 1.46327 121.213 1.14652ZM121.729 1.15553C122.256 0.525029 122.235 1.75076 121.729 1.15553V1.15553ZM123.278 1.18256C125.336 1.59166 126.041 0.644406 123.278 1.18256V1.18256ZM135.671 1.23896C134.981 1.28023 133.093 0.98073 133.087 1.35378C133.949 1.26221 135.665 1.55871 135.671 1.23896ZM136.184 1.40785C135.841 1.34855 136.354 1.51744 136.184 1.40785V1.40785ZM140.661 1.32607C140.145 1.31706 139.629 1.30804 139.626 1.46792C139.971 1.42064 140.486 1.48294 140.661 1.32607ZM147.026 1.59708C147.19 2.02643 149.093 1.47325 147.026 1.59708C144.959 1.66762 146.862 1.11445 147.026 1.59708ZM150.981 1.82605C151.325 1.83206 151.669 1.83807 152.013 1.84407C152.015 1.73749 152.017 1.6309 152.019 1.52432C151.675 1.51831 151.331 1.5123 150.986 1.50629C150.985 1.61288 150.983 1.71947 150.981 1.82605ZM155.461 1.58439C155.116 1.57838 154.428 1.56637 154.425 1.72625C154.77 1.67896 155.458 1.74427 155.461 1.58439ZM188.67 2.324C188.499 2.2677 189.013 2.43659 188.67 2.324V2.324ZM149.951 1.64815C149.607 1.64214 149.091 1.63313 148.916 1.79001C149.433 1.74572 149.948 1.80803 149.951 1.64815ZM153.046 1.8621C152.704 1.7495 153.217 1.91839 153.046 1.8621V1.8621ZM155.971 1.91316C155.801 1.80357 156.315 1.97246 155.971 1.91316V1.91316ZM158.381 1.95521C158.21 1.84562 158.724 2.01451 158.381 1.95521V1.95521ZM159.413 1.97324C159.243 1.86365 159.756 2.03254 159.413 1.97324V1.97324ZM162.855 2.03331C162.858 1.87343 161.998 1.80512 161.822 2.01529C162.511 1.97401 162.679 2.24348 162.855 2.03331ZM165.436 2.07837C163.374 1.88244 165.257 2.50171 165.436 2.07837C165.268 1.86219 166.126 1.9838 165.436 2.07837ZM191.593 2.53494C191.423 2.42535 191.936 2.59424 191.593 2.53494V2.53494ZM166.295 2.19997C166.123 2.14368 166.637 2.31256 166.295 2.19997V2.19997ZM171.28 2.60684C171.802 2.2428 169.571 1.88399 169.392 2.25404C170.079 2.37264 170.592 2.54153 171.28 2.60684ZM195.035 2.59502C194.691 2.58901 194.174 2.58 194.173 2.68658C194.517 2.69259 195.033 2.7016 195.035 2.59502ZM125.163 1.64195C125.862 1.06774 125.84 2.29347 125.163 1.64195V1.64195ZM128.264 1.53614C127.746 1.58042 127.23 1.57141 127.228 1.67799C127.572 1.684 128.089 1.69301 128.264 1.53614ZM132.222 1.60522C131.359 1.69679 129.643 1.40029 129.637 1.72005C130.327 1.67877 132.215 1.97827 132.222 1.60522ZM134.631 1.64728C131.536 1.43333 133.59 2.10889 134.631 1.64728V1.64728ZM139.621 1.73439C139.276 1.78167 138.588 1.76966 138.586 1.87624C138.93 1.88225 139.618 1.89426 139.621 1.73439ZM142.544 1.94533C142.373 1.88903 142.886 2.05792 142.544 1.94533V1.94533ZM148.57 1.89058C147.88 1.93186 147.021 1.86355 147.018 2.02343C147.534 2.03244 148.394 2.10075 148.57 1.89058ZM149.944 2.07449C149.772 2.01819 150.286 2.18708 149.944 2.07449V2.07449ZM174.724 2.50703C174.553 2.45074 175.066 2.61963 174.724 2.50703V2.50703ZM189.179 2.75935C189.008 2.70305 189.522 2.87195 189.179 2.75935V2.75935ZM111.738 1.56753C111.567 1.51124 112.08 1.68012 111.738 1.56753V1.56753ZM135.649 2.46469C133.941 1.68855 138.07 1.86723 135.649 2.46469V2.46469ZM154.415 2.31247C154.244 2.25617 154.757 2.42506 154.415 2.31247V2.31247ZM155.964 2.3395C155.793 2.28321 156.306 2.45209 155.964 2.3395V2.3395ZM157.857 2.37254C157.686 2.31625 158.199 2.48514 157.857 2.37254V2.37254ZM158.889 2.39057C158.718 2.33427 159.232 2.50316 158.889 2.39057V2.39057ZM192.618 2.97931C192.447 2.92301 192.961 3.0919 192.618 2.97931V2.97931ZM200.018 3.10847C199.847 3.05217 200.36 3.22106 200.018 3.10847V3.10847ZM101.923 1.71607C103.3 1.7401 105.363 1.88273 105.371 1.45639C104.506 1.65454 102.444 1.45862 101.923 1.71607ZM105.884 1.62528C105.713 1.56898 106.226 1.73787 105.884 1.62528V1.62528ZM107.43 1.81219C106.568 1.90376 107.427 1.97207 107.43 1.81219C108.118 1.82421 108.636 1.72663 108.812 1.51647C107.952 1.50145 107.606 1.60203 107.43 1.81219ZM131.181 2.06684C131.707 1.48963 131.686 2.71536 131.181 2.06684V2.06684ZM137.548 2.17797C137.377 2.12168 137.89 2.29057 137.548 2.17797V2.17797ZM139.094 2.36489C138.749 2.41217 138.575 2.51575 138.059 2.50674C138.057 2.61333 138.055 2.71991 138.053 2.8265C138.397 2.83251 138.741 2.83851 139.085 2.84452C139.605 2.64036 139.262 2.58106 139.094 2.36489C139.954 2.37991 140.3 2.27933 140.648 2.07217C139.788 2.05715 139.27 2.15472 139.094 2.36489ZM166.289 2.51973C165.944 2.56701 165.429 2.50471 165.426 2.66459C165.771 2.6173 166.286 2.67961 166.289 2.51973ZM198.125 3.07543C197.608 3.11971 197.092 3.0574 197.09 3.21728C197.435 3.17 198.122 3.2353 198.125 3.07543ZM202.596 3.3134C202.253 3.2541 202.767 3.42299 202.596 3.3134V3.3134ZM116.72 2.13427C117.931 1.78225 115.178 1.6809 115.346 1.95037C115.346 1.95037 116.893 2.08399 116.72 2.13427ZM117.755 1.99242C117.584 1.93612 118.097 2.10501 117.755 1.99242V1.99242ZM119.296 2.49909C119.469 2.39551 120.51 1.93389 119.307 1.85957C119.646 2.13205 117.749 2.36547 119.296 2.49909ZM123.781 1.93767C123.264 1.98195 122.748 1.91965 122.746 2.07953C123.091 2.03224 123.778 2.09755 123.781 1.93767ZM124.639 2.11257C123.425 2.62447 126.366 1.76956 124.639 2.11257V2.11257ZM126.187 2.1396C126.016 2.08331 126.53 2.2522 126.187 2.1396V2.1396ZM142.016 2.57583C141.5 2.56682 141.676 2.35665 142.016 2.57583C142.014 2.73571 142.184 2.8453 142.527 2.9046C142.701 2.80102 143.742 2.3394 142.538 2.26508C142.708 2.42797 142.362 2.52855 142.016 2.57583ZM145.461 2.47603C146.16 1.90182 146.139 3.07426 145.461 2.47603V2.47603ZM147.013 2.34318C145.454 2.84908 148.897 2.85586 147.013 2.34318V2.34318ZM150.971 2.41227C150.625 2.45956 149.938 2.39425 149.935 2.55413C150.28 2.50684 150.968 2.57215 150.971 2.41227ZM156.994 2.5174C156.476 2.56168 155.961 2.49938 155.958 2.65926C156.303 2.61197 156.819 2.67428 156.994 2.5174ZM157.335 2.68329C157.164 2.62699 157.677 2.79588 157.335 2.68329V2.68329ZM130.659 2.37758C130.485 2.48116 130.828 2.54046 131.172 2.54647C131.169 2.75964 131.165 2.97281 130.649 2.9638C129.788 2.94878 128.754 3.03735 128.585 2.82117C129.786 3.05537 130.143 2.31528 129.11 2.35055C129.101 2.88347 127.396 1.94746 127.214 2.47738C126.358 2.24919 125.153 2.22817 126.179 2.61924C125.49 2.66052 126.176 2.77912 126.179 2.61924C126.695 2.62825 127.04 2.58096 127.214 2.47738C127.558 2.53668 128.073 2.59899 128.241 2.81516C127.724 2.85944 127.207 2.90373 127.204 3.0636C127.72 3.07261 128.064 3.13191 128.234 3.2415C127.718 3.23249 127.201 3.22348 126.685 3.21447C126.18 2.56595 124.792 3.18143 123.249 2.83464C123.247 2.94122 123.245 3.04781 123.243 3.15439C122.215 2.86991 121.53 2.69801 120.662 3.10934C119.643 2.29192 117.389 3.26544 115.849 2.70548C115.853 2.4923 117.227 2.67621 117.23 2.46304C117.747 2.47205 117.744 2.63193 118.26 2.64094C118.611 2.2739 116.897 1.87082 117.23 2.46304C116.374 2.23485 114.135 2.30239 115.33 2.85634C113.436 2.87659 109.648 2.97039 108.279 2.46672C108.782 3.27513 104.317 2.6641 101.388 2.77291C101.389 2.71962 101.39 2.66633 101.391 2.61304C102.079 2.67834 102.767 2.69036 102.943 2.48019C102.257 2.3083 101.741 2.29929 101.391 2.61304C100.874 2.65732 101.044 2.76691 101.388 2.77291C96.3932 2.95227 105.332 3.64139 104.311 2.98386C105.85 3.54382 107.752 3.09722 109.304 2.91109C110.324 3.67521 113.607 2.93289 115.322 3.33598C115.146 3.54614 113.772 3.36223 113.767 3.6287C116.521 3.67676 118.064 4.02355 120.14 3.42008C118.595 3.17988 117.208 3.74207 116.698 3.36001C118.259 2.69423 120.311 3.47638 123.243 3.15439C124.102 3.276 125.651 3.30303 126.685 3.21447C126.853 3.43064 128.058 3.45167 128.234 3.2415C131.155 3.55903 131.853 2.98483 133.568 3.33462C133.905 3.76697 131.333 3.18899 131.67 3.62134C132.87 3.90883 133.901 4.03343 135.112 3.68141C135.115 3.46824 135.802 3.58684 135.112 3.68141C134.25 3.71968 134.081 3.5568 134.085 3.34363C135.29 3.31137 135.977 3.42997 136.491 3.54556C136.139 4.01919 138.208 3.78877 138.029 4.21211C137.34 4.20009 136.138 4.07248 136.134 4.28565C136.647 4.45454 137.335 4.51985 138.54 4.48758C138.385 3.52531 139.928 3.8721 141.992 3.96144C142.522 3.22435 138.206 3.89536 138.556 3.58161C138.904 3.37444 139.766 3.28288 140.971 3.3039C140.97 3.3572 140.969 3.41049 140.968 3.46378C142.002 3.42851 142.343 3.5944 143.03 3.65971C141.472 4.1656 144.915 4.17238 143.03 3.65971C143.555 3.18908 142.003 3.37522 140.971 3.3039C140.631 3.03143 142.528 2.8513 140.981 2.71768C140.974 3.14403 139.078 3.27086 138.05 2.98638C138.047 3.14625 138.044 3.35943 138.04 3.5726C137.524 3.56359 137.007 3.55457 136.491 3.54556C136.666 3.38869 137.526 3.457 137.529 3.24383C136.496 3.2791 137.02 2.80848 136.16 2.79346C136.156 3.00663 136.153 3.2198 135.636 3.21079C134.954 2.82572 135.128 2.72214 133.576 2.90828C134.956 2.71914 133.248 1.943 132.552 2.41062C133.066 2.52622 133.573 3.06816 131.681 2.98182C131.343 2.65606 133.066 2.52622 131.172 2.54647C131.175 2.38659 131.003 2.38359 130.659 2.37758C130.318 2.1584 129.97 2.36557 130.659 2.37758ZM153.885 3.10285C153.196 3.14412 154.054 3.26573 153.885 3.10285C155.434 3.12988 153.729 2.19387 153.374 2.77408C153.89 2.78309 153.888 2.94297 153.885 3.10285ZM166.281 2.99936C166.283 2.83948 165.424 2.77117 165.42 2.98434C165.936 2.99335 166.105 3.20953 166.281 2.99936ZM190.545 3.42289C190.374 3.3666 190.887 3.53549 190.545 3.42289V3.42289ZM102.947 2.21373C103.116 2.4299 103.465 2.16945 102.947 2.21373C101.4 2.1334 103.303 1.58022 102.947 2.21373ZM120.675 2.36324C120.332 2.30394 120.33 2.41053 120.156 2.51411C119.467 2.55538 120.325 2.67699 120.156 2.51411C120.672 2.52312 120.673 2.46983 120.675 2.36324C121.537 2.27167 120.679 2.15007 120.675 2.36324ZM144.079 2.77175C143.735 2.71245 144.421 2.88435 144.079 2.77175V2.77175ZM158.878 3.03008C158.35 3.71387 161.29 2.91225 158.878 3.03008C158.362 3.02107 158.538 2.8109 158.878 3.03008ZM166.794 3.16825C166.623 3.11196 167.136 3.28084 166.794 3.16825V3.16825ZM97.9569 2.12662C97.7866 2.01703 98.2992 2.23921 97.9569 2.12662V2.12662ZM100.369 2.00879C100.025 2.00279 99.5084 1.99377 99.3335 2.15065C99.8507 2.10637 100.366 2.16867 100.369 2.00879ZM103.808 2.22875C103.638 2.11916 104.15 2.34134 103.808 2.22875V2.22875ZM110.342 2.60936C110.859 2.61837 111.375 2.62738 111.719 2.63339C111.722 2.47351 111.899 2.21005 111.382 2.20104C111.378 2.4675 110.689 2.45548 110.342 2.60936ZM124.63 2.59221C123.597 2.62747 122.738 2.50587 122.224 2.39027C121.528 2.8046 124.799 2.80838 124.63 2.59221ZM156.466 3.1479C155.779 3.08259 155.782 2.92272 154.92 2.96099C154.225 3.32202 156.634 3.41737 156.466 3.1479ZM182.107 3.59547C181.577 4.38584 183.653 3.78238 182.107 3.59547C180.04 3.666 182.115 3.11583 182.107 3.59547ZM197.595 3.86581C197.425 3.75622 197.937 3.9784 197.595 3.86581V3.86581ZM106.384 2.54027C106.729 2.54628 107.073 2.55228 107.417 2.55829C107.419 2.45171 107.42 2.39841 107.422 2.29183C107.077 2.28582 106.733 2.27981 106.389 2.27381C106.387 2.38039 106.386 2.43368 106.384 2.54027ZM150.959 3.05178C147.866 2.78454 149.919 3.4601 150.959 3.05178V3.05178ZM151.989 3.22968C151.129 3.21466 150.262 3.57269 151.984 3.49615C151.457 4.12665 153.36 3.57347 151.984 3.49615C151.986 3.38956 151.988 3.28298 151.989 3.22968C152.679 3.13511 151.821 3.01351 151.989 3.22968ZM195.527 3.98964C195.357 3.88005 195.87 4.04894 195.527 3.98964V3.98964ZM99.3308 2.31053C98.9866 2.30452 98.4703 2.29551 98.4685 2.40209C98.8126 2.4081 99.3289 2.41711 99.3308 2.31053ZM104.836 2.51323C104.664 2.45694 105.178 2.62583 104.836 2.51323V2.51323ZM112.235 2.6424C112.064 2.5861 112.578 2.75499 112.235 2.6424V2.6424ZM114.302 2.57186C113.958 2.56585 113.27 2.55383 113.268 2.66042C113.612 2.66643 114.3 2.67844 114.302 2.57186ZM145.961 3.39101C146.13 3.60719 146.476 3.50661 146.478 3.40003C146.48 3.24015 147.167 3.35875 146.478 3.40003C146.306 3.39702 146.134 3.39402 145.961 3.39101C146.136 3.23414 145.966 3.12455 145.45 3.11554C145.104 3.21612 144.415 3.25739 144.582 3.52686C145.269 3.59217 145.445 3.382 145.961 3.39101ZM159.903 3.47444C159.732 3.41815 160.246 3.58704 159.903 3.47444V3.47444ZM161.28 3.49847C161.109 3.44218 161.622 3.61107 161.28 3.49847V3.49847ZM163.863 3.43694C163.519 3.43094 162.831 3.41892 162.829 3.52551C163.173 3.53151 163.861 3.54353 163.863 3.43694ZM168.333 3.78151C169.54 3.64265 170.389 4.29718 170.742 3.82356C170.398 3.81755 170.227 3.70796 170.23 3.54808C169.37 3.53306 168.681 3.57434 168.333 3.78151ZM173.67 3.71474C173.499 3.65845 174.012 3.82734 173.67 3.71474V3.71474ZM190.19 4.00311C189.847 3.94381 190.361 4.1127 190.19 4.00311V4.00311ZM86.5917 2.35471C86.2485 2.29541 86.7619 2.4643 86.5917 2.35471V2.35471ZM91.4046 2.75857C90.8874 2.80286 91.2297 2.91545 91.4018 2.91845C92.598 3.41911 94.6742 2.81565 91.4018 2.91845C91.4027 2.86516 91.4036 2.81187 91.4046 2.75857C92.2641 2.82689 92.2678 2.61371 92.9561 2.62573C93.2966 2.84491 93.6445 2.63774 92.9561 2.62573C92.957 2.57244 92.958 2.51914 92.9589 2.46585C92.0966 2.55742 90.9013 2.00347 90.5497 2.4238C90.892 2.53639 91.4073 2.5987 91.4046 2.75857ZM94.5049 2.65276C94.8491 2.65877 95.1932 2.66478 95.3653 2.66778C95.3672 2.5612 95.3691 2.45461 95.3709 2.34803C95.1988 2.34502 94.8546 2.33902 94.5105 2.33301C94.5086 2.43959 94.5068 2.54618 94.5049 2.65276ZM103.8 2.65509C103.629 2.59879 104.143 2.76768 103.8 2.65509V2.65509ZM81.5984 2.42748C81.4273 2.37118 81.9407 2.54007 81.5984 2.42748V2.42748ZM87.9656 2.53862C87.7945 2.48232 88.3079 2.65121 87.9656 2.53862V2.53862ZM89.5144 2.56565C88.9981 2.55664 88.9972 2.60994 88.9953 2.71652C88.3051 2.81109 88.9916 2.92969 88.9953 2.71652C89.3386 2.77582 89.5125 2.67224 89.5144 2.56565C90.2046 2.47108 89.5172 2.40578 89.5144 2.56565ZM95.8816 2.67679C95.7104 2.6205 96.2239 2.78939 95.8816 2.67679V2.67679ZM97.9466 2.71284C99.1605 2.20094 99.1373 3.53326 97.9466 2.71284V2.71284ZM171.255 3.99245C171.084 3.93615 171.598 4.10504 171.255 3.99245V3.99245ZM174.181 4.04351C174.879 3.46931 174.858 4.69504 174.181 4.04351V4.04351ZM176.762 4.08857C176.246 4.07956 176.245 4.13285 176.243 4.23944C175.896 4.39331 174.864 4.32199 174.689 4.53216C175.032 4.59146 176.575 4.93825 176.754 4.5682C176.237 4.55919 176.413 4.34902 176.243 4.23944C176.586 4.29874 176.76 4.19515 176.762 4.08857C177.452 3.994 176.593 3.92569 176.762 4.08857ZM178.128 4.75211C179.505 4.72285 179.845 4.99532 179.666 5.36536C181.906 5.24454 183.103 5.6919 183.118 4.83922C179.846 4.94203 179.166 4.45038 179.174 3.97074C178.996 4.2875 178.134 4.37906 178.128 4.75211ZM187.087 4.26879C186.916 4.2125 187.43 4.38139 187.087 4.26879V4.26879ZM79.0116 2.70218C79.3557 2.70819 79.6999 2.7142 80.0441 2.7202C80.0459 2.61362 80.0478 2.50703 80.0496 2.40045C79.7055 2.39444 79.3613 2.38843 79.0171 2.38242C79.0153 2.48901 79.0134 2.59559 79.0116 2.70218ZM84.5211 2.63842C84.1686 3.11205 83.3202 2.40423 82.1119 2.59637C81.4115 3.27716 85.0374 2.64743 85.029 3.12707C84.5137 3.06476 84.1686 3.11205 83.9937 3.26892C84.855 3.23065 85.8857 3.35526 86.0615 3.14509C85.0299 3.07378 85.7266 2.60616 84.5211 2.63842C84.1807 2.41924 84.0048 2.62941 84.5211 2.63842ZM177.792 4.26647C177.449 4.20717 177.962 4.37606 177.792 4.26647V4.26647ZM180.201 4.30852C180.03 4.25223 180.543 4.42112 180.201 4.30852V4.30852ZM74.1931 2.61807C73.8499 2.55877 74.3634 2.72766 74.1931 2.61807V2.61807ZM97.4248 3.02358C97.2536 2.96729 97.7671 3.13618 97.4248 3.02358V3.02358ZM121.683 3.76687C125.642 3.78267 126.334 3.58151 129.599 3.90505C129.603 3.69188 129.779 3.48171 129.091 3.4164C127.878 3.9283 122.214 2.97649 121.683 3.76687ZM166.776 4.23411C166.604 4.17781 167.118 4.3467 166.776 4.23411V4.23411ZM169.701 4.28517C170.041 4.50435 170.389 4.29718 169.701 4.28517C169.705 4.072 168.498 4.15756 167.811 4.09225C167.807 4.30542 167.803 4.51859 167.286 4.56287C167.461 4.406 167.117 4.39999 166.773 4.39398C166.416 5.08078 168.832 4.74979 169.695 4.60493C169.353 4.49233 168.838 4.43003 168.841 4.27015C169.185 4.27616 169.529 4.28217 169.701 4.28517ZM181.747 4.49543C181.404 4.43613 181.917 4.60502 181.747 4.49543V4.49543ZM184.672 4.5465C184.675 4.38662 183.816 4.31831 183.64 4.52848C184.156 4.53749 184.497 4.75667 184.672 4.5465ZM77.6321 2.83803C77.4609 2.78173 77.9744 2.95062 77.6321 2.83803V2.83803ZM87.441 3.00924C86.228 3.46785 89.1684 2.66623 87.441 3.00924V3.00924ZM91.0548 3.07232C88.8084 3.5662 89.1693 2.61294 91.0548 3.07232V3.07232ZM95.876 2.99655C95.5309 3.04383 95.0156 2.98153 95.0128 3.14141C95.3579 3.09412 95.8732 3.15643 95.876 2.99655ZM131.667 3.78121C129.611 3.21224 130.454 4.23982 131.667 3.78121V3.78121ZM189.144 4.78447C188.973 4.72818 189.486 4.89707 189.144 4.78447V4.78447ZM196.544 4.91364C196.372 4.85734 196.886 5.02623 196.544 4.91364V4.91364ZM52.8442 2.83183C49.9188 2.78076 46.6445 2.99015 43.8846 3.31514C47.6733 3.22135 50.7727 3.16883 52.8442 2.83183C54.5614 3.07503 57.1492 2.74704 58.7026 2.50761C56.8078 2.58116 54.2256 2.58939 52.8442 2.83183ZM79.0032 3.18181C78.6479 3.81532 80.552 3.20885 79.0032 3.18181C76.7633 3.30264 79.7046 2.44773 79.0032 3.18181ZM80.5547 3.04897C80.3845 2.93938 80.8971 3.16156 80.5547 3.04897V3.04897ZM98.968 3.37037C98.6257 3.25778 99.1382 3.47996 98.968 3.37037V3.37037ZM104.3 3.62337C105.851 3.49053 106.191 3.763 106.876 3.93489C107.749 3.2571 110.66 4.16085 111.361 3.42677C108.948 3.59789 106.888 3.29538 104.3 3.62337ZM112.738 3.4508C112.393 3.44479 111.877 3.43578 111.702 3.59265C112.22 3.54837 112.735 3.61068 112.738 3.4508ZM192.583 5.00443C192.413 4.89484 192.925 5.11702 192.583 5.00443V5.00443ZM221.321 5.50606C221.151 5.39647 221.664 5.61865 221.321 5.50606V5.50606ZM82.9612 3.2509C82.7909 3.14131 83.3044 3.3102 82.9612 3.2509V3.2509ZM195.506 5.21537C195.335 5.10578 195.849 5.27467 195.506 5.21537V5.21537ZM81.5826 3.33346C81.4115 3.27716 81.9249 3.44605 81.5826 3.33346V3.33346ZM88.4661 3.45361C88.2949 3.39731 88.8084 3.5662 88.4661 3.45361V3.45361ZM89.4986 3.47163C89.3274 3.41533 89.8409 3.58422 89.4986 3.47163V3.47163ZM100.342 3.55428C99.8256 3.54527 98.9661 3.47696 98.9633 3.63684C99.4796 3.64585 100.339 3.71416 100.342 3.55428ZM103.439 3.60835C100.174 3.33811 102.227 4.01366 103.439 3.60835V3.60835ZM122.195 4.04235C122.721 3.46514 122.7 4.69087 122.195 4.04235V4.04235ZM130.108 4.3404C129.592 4.33139 129.594 4.2248 129.078 4.1625C128.725 4.68942 130.796 4.40571 131.135 4.67818C130.968 4.40871 130.8 4.13924 130.113 4.07394C130.112 4.12723 130.11 4.23381 130.108 4.3404ZM133.031 4.55134C132.515 4.54233 132.169 4.58962 132.168 4.6962C131.305 4.78777 132.164 4.90937 132.168 4.6962C132.683 4.7585 133.029 4.65793 133.031 4.55134C133.375 4.55735 133.719 4.56336 134.063 4.56936C134.239 4.3592 134.927 4.37121 135.103 4.16105C133.379 4.34418 132.698 3.90582 131.66 4.20756C132.52 4.22257 132.862 4.38846 133.031 4.55134ZM139.051 4.81635C138.879 4.81335 138.707 4.81034 138.535 4.80734C138.369 4.43129 136.299 4.66171 136.467 4.93117C137.494 5.26895 137.5 4.8959 138.535 4.80734C138.704 4.97022 139.049 4.92294 139.051 4.81635C140.261 4.51762 139.566 4.87866 140.597 5.00326C139.917 4.51161 141.292 4.64223 141.469 4.37877C142.674 4.3465 142.151 4.71054 143.012 4.72556C143.188 4.51539 143.876 4.52741 144.052 4.31724C143.362 4.35852 141.474 4.05901 141.469 4.37877C140.954 4.26317 140.267 4.19786 139.061 4.23013C139.058 4.39001 139.055 4.60318 139.051 4.81635ZM177.776 5.17244C177.943 5.44191 178.292 5.18146 177.776 5.17244C177.778 5.06586 178.123 5.01857 178.125 4.91199C176.753 4.6215 175.881 5.24599 177.776 5.17244ZM185.686 5.63038C186.375 5.64239 187.406 5.71371 187.582 5.50354C187.238 5.49753 186.55 5.48551 186.552 5.32564C187.241 5.33765 187.758 5.29337 187.59 5.0772C186.9 5.11847 185.012 4.81897 185.178 5.14173C187.071 5.17477 185.348 5.30461 185.686 5.63038ZM202.903 5.45112C202.732 5.39482 203.246 5.56371 202.903 5.45112V5.45112ZM74.5215 3.53006C74.862 3.74924 75.2098 3.54207 74.5215 3.53006C72.2816 3.65089 75.2219 2.84927 74.5215 3.53006ZM77.1056 3.41524C76.9344 3.35894 77.4479 3.52783 77.1056 3.41524V3.41524ZM80.031 3.4663C79.8599 3.41 80.3734 3.57889 80.031 3.4663V3.4663ZM91.905 3.67356C91.7338 3.61727 92.2473 3.78615 91.905 3.67356V3.67356ZM94.4863 3.71862C94.143 3.65932 94.8286 3.83121 94.4863 3.71862V3.71862ZM96.3792 3.75166C96.2081 3.69536 96.7215 3.86425 96.3792 3.75166V3.75166ZM114.792 4.07306C115.319 3.49585 115.298 4.72159 114.792 4.07306V4.07306ZM117.202 4.11512C117.031 4.05882 117.544 4.22771 117.202 4.11512V4.11512ZM119.269 3.99128C118.752 4.03556 118.236 4.02655 118.234 4.13314C118.578 4.13915 119.267 4.15116 119.269 3.99128ZM120.643 4.17519C120.472 4.1189 120.986 4.28778 120.643 4.17519V4.17519ZM124.601 4.24428C124.43 4.18798 124.944 4.35687 124.601 4.24428V4.24428ZM126.147 4.43119C126.492 4.4372 126.836 4.4432 127.18 4.44921C127.182 4.34263 127.184 4.23604 127.185 4.12946C126.841 4.12345 126.497 4.11744 126.153 4.11143C126.151 4.21802 126.149 4.3246 126.147 4.43119ZM127.699 4.29835C127.167 5.19531 127.881 3.71513 127.699 4.29835V4.29835ZM178.636 5.18746C178.465 5.13117 178.979 5.30006 178.636 5.18746V5.18746ZM189.65 5.3797C189.307 5.32041 189.992 5.4923 189.65 5.3797V5.3797ZM198.426 5.5329C198.255 5.4766 198.769 5.64549 198.426 5.5329V5.5329ZM109.283 4.13682C108.923 5.03679 109.637 3.55661 109.283 4.13682V4.13682ZM119.78 4.32005C120.477 3.85243 120.975 4.9273 119.78 4.32005V4.32005ZM135.096 4.58739C134.925 4.53109 135.438 4.69998 135.096 4.58739V4.58739ZM183.624 5.43445C183.453 5.37816 183.966 5.54704 183.624 5.43445V5.43445ZM193.092 5.43978C192.747 5.48707 192.059 5.42176 192.056 5.58164C192.401 5.58764 193.089 5.59966 193.092 5.43978ZM208.921 5.87601C208.75 5.81971 209.263 5.9886 208.921 5.87601V5.87601ZM86.5647 3.9002C86.2215 3.8409 86.735 4.00979 86.5647 3.9002V3.9002ZM111.687 4.49863C112.547 4.51365 113.065 4.41607 113.241 4.20591C112.553 4.19389 111.52 4.17587 111.687 4.49863ZM115.819 4.41084C115.476 4.35154 115.99 4.52043 115.819 4.41084V4.41084ZM118.745 4.46191C119.085 4.68108 119.261 4.47092 118.745 4.46191C118.057 4.44989 118.404 4.24273 118.745 4.46191ZM122.187 4.52198C121.827 5.42195 122.541 3.94177 122.187 4.52198V4.52198ZM124.08 4.55502C124.931 5.10297 125.466 3.99283 124.08 4.55502V4.55502ZM143.525 4.89445C144.052 4.31724 144.031 5.48968 143.525 4.89445V4.89445ZM189.128 5.69045C190.669 6.19712 192.745 5.59365 189.128 5.69045C188.44 5.67844 188.788 5.47127 189.128 5.69045ZM193.602 5.76855C193.259 5.70925 193.945 5.88114 193.602 5.76855V5.76855ZM196.531 5.65973C193.436 5.44579 195.49 6.12135 196.531 5.65973V5.65973ZM204.444 5.95779C204.607 6.44043 206.512 5.83395 204.444 5.95779C202.376 6.08162 204.28 5.47515 204.444 5.95779ZM218.899 6.2101C218.556 6.1508 219.069 6.31969 218.899 6.2101V6.2101ZM90.0037 4.12015C89.8325 4.06386 90.346 4.23275 90.0037 4.12015V4.12015ZM102.397 4.17655C102.052 4.22383 101.364 4.15853 101.361 4.3184C101.706 4.27112 102.394 4.33643 102.397 4.17655ZM104.281 4.68922C104.283 4.58264 104.457 4.47906 104.8 4.53836C104.804 4.32518 104.635 4.1623 103.773 4.20058C103.943 4.36346 103.766 4.62692 104.281 4.68922ZM106.349 4.56539C106.693 4.5714 107.037 4.57741 107.382 4.58341C107.383 4.47683 107.385 4.37024 107.387 4.26366C107.043 4.25765 106.699 4.25164 106.355 4.24563C106.353 4.35222 106.351 4.4588 106.349 4.56539ZM121.151 4.66384C121.85 4.08963 121.829 5.26207 121.151 4.66384V4.66384ZM125.626 4.74194C125.454 4.68564 125.968 4.85453 125.626 4.74194V4.74194ZM128.551 4.793C128.38 4.7367 128.893 4.90559 128.551 4.793V4.793ZM134.574 4.89813C134.403 4.84183 134.916 5.01072 134.574 4.89813V4.89813ZM140.941 5.00927C141.64 4.43507 141.619 5.60751 140.941 5.00927V5.00927ZM141.974 5.02729C141.803 4.971 142.316 5.13989 141.974 5.02729V5.02729ZM178.628 5.6671C177.414 6.179 180.355 5.32409 178.628 5.6671V5.6671ZM183.102 5.7452C182.752 6.11224 185.161 6.15429 186.025 5.95614C184.646 6.03869 184.653 5.66565 183.102 5.7452C183.103 5.6919 183.104 5.63861 183.105 5.58532C181.723 5.88104 180.356 5.27079 179.658 5.845C180.863 5.81273 182.068 5.83376 182.58 6.05594C182.584 5.84277 182.757 5.79248 183.102 5.7452ZM199.45 6.03055C199.445 6.35031 201.17 6.11388 202.029 6.23549C203.569 6.74216 205.647 6.0854 202.029 6.23549C202.035 5.91573 200.137 6.14916 199.45 6.03055C197.91 5.52389 195.834 6.12735 199.45 6.03055ZM43.3683 3.30613C42.8521 3.29712 41.9926 3.22881 41.8168 3.43897C42.506 3.3977 43.3655 3.46601 43.3683 3.30613ZM96.3681 4.39117C96.1969 4.33488 96.7104 4.50376 96.3681 4.39117V4.39117ZM126.655 4.91984C126.484 4.86354 126.998 5.03243 126.655 4.91984V4.91984ZM133.536 5.19987C133.014 5.51061 134.384 5.90769 134.564 5.48435C134.047 5.47534 134.222 5.31846 134.052 5.20888C134.056 4.99571 134.742 5.11431 134.052 5.20888C133.88 5.20587 133.708 5.20287 133.536 5.19987C133.375 4.55735 131.471 5.16382 133.536 5.19987ZM195.49 6.12135C196.17 6.613 198.074 6.00652 195.49 6.12135C191.357 6.20913 193.433 5.60567 195.49 6.12135ZM36.9928 3.67463C36.1323 3.65961 35.1017 3.535 34.9259 3.74517C31.8311 3.53122 33.885 4.20678 34.9259 3.74517C35.7863 3.76018 36.817 3.88479 36.9928 3.67463C38.7136 3.70466 40.0912 3.6754 40.9563 3.42396C39.2355 3.39392 37.8578 3.42318 36.9928 3.67463ZM100.323 4.62014C100.152 4.56384 100.666 4.73273 100.323 4.62014V4.62014ZM115.292 5.04134C116.504 4.63603 113.579 4.58496 113.746 4.85443C113.746 4.85443 115.466 4.93776 115.292 5.04134ZM136.457 5.51739C135.767 5.61196 136.625 5.73357 136.457 5.51739C136.629 5.5204 136.801 5.5234 136.973 5.5264C137.498 5.05578 135.09 4.90714 135.082 5.38678C135.771 5.3455 136.459 5.35751 136.457 5.51739ZM138.526 5.28698C138.525 5.34027 138.525 5.39356 138.524 5.44685C138.868 5.45286 139.038 5.56245 139.554 5.57146C139.556 5.46488 140.072 5.47389 140.075 5.31401C139.391 5.08882 139.216 5.2457 138.526 5.28698C138.186 5.0678 138.01 5.27796 138.526 5.28698ZM152.979 5.69917C150.917 5.50325 152.799 6.12251 152.979 5.69917C153.839 5.71419 155.726 6.12028 156.421 5.75925C154.869 5.89209 152.819 5.00336 152.979 5.69917ZM174.148 5.90876C172.608 5.40209 172.762 6.41765 174.148 5.90876V5.90876ZM188.087 6.15206C189.8 6.66173 193.589 6.51465 197.028 6.7346C197.539 7.06337 201.152 7.17974 202.529 7.15048C202.529 7.20377 202.528 7.25706 202.527 7.31036C203.735 7.11821 204.412 7.76974 204.936 7.35241C204.421 7.23681 203.563 7.11521 202.529 7.15048C202.534 6.88401 202.018 6.875 202.022 6.66183C201.852 6.49895 202.711 6.62055 202.022 6.66183C201.849 6.65883 201.677 6.65582 201.505 6.65282C199.957 6.62579 202.032 6.07561 201.505 6.65282C201.502 6.86599 201.328 6.96957 200.983 6.96356C199.434 6.98982 199.44 6.61678 198.064 6.59274C198.061 6.75262 197.372 6.74061 197.028 6.7346C197.029 6.68131 197.03 6.62801 197.031 6.57472C197.034 6.41484 197.72 6.53344 197.031 6.57472C193.935 6.41407 190.844 5.98695 188.087 6.15206C188.088 6.09877 188.089 6.04548 188.09 5.99218C187.058 5.92087 186.541 5.96515 186.536 6.28491C187.396 6.29993 187.399 6.14005 188.087 6.15206ZM198.929 6.3413C199.093 6.77065 200.996 6.21747 198.929 6.3413C198.412 6.33229 198.76 6.12513 198.929 6.3413ZM208.393 6.50651C208.222 6.45021 208.736 6.6191 208.393 6.50651V6.50651ZM123.208 5.17952C123.888 5.67117 124.424 4.56103 123.208 5.17952V5.17952ZM141.452 5.33804C141.108 5.33203 140.591 5.32302 140.589 5.4829C140.934 5.43561 141.449 5.49792 141.452 5.33804ZM168.811 5.97552C168.468 5.86292 169.154 6.03482 168.811 5.97552V5.97552ZM174.662 6.07765C175.361 5.45015 175.34 6.67588 174.662 6.07765V6.07765ZM181.201 6.19179C181.018 6.8283 183.094 6.22483 181.201 6.19179C180.513 6.17977 180.861 5.91932 181.201 6.19179ZM206.842 6.63935C208.039 7.08672 210.115 6.48325 206.842 6.63935C203.741 6.74516 205.818 6.14169 206.842 6.63935ZM225.771 6.96977C225.601 6.86018 226.115 7.02907 225.771 6.96977V6.96977ZM103.76 4.94668C103.589 4.89038 104.103 5.05927 103.76 4.94668V4.94668ZM116.667 5.17196C116.496 5.11566 117.009 5.28455 116.667 5.17196V5.17196ZM203.398 6.68586C203.227 6.62956 203.741 6.79845 203.398 6.68586V6.68586ZM108.232 5.18465C108.061 5.12836 108.574 5.29724 108.232 5.18465V5.18465ZM184.641 6.35845C184.296 6.40573 183.607 6.39372 183.606 6.50031C183.95 6.50631 184.638 6.51833 184.641 6.35845ZM205.458 7.04166C204.767 7.13623 205.454 7.25483 205.458 7.04166C206.319 7.00339 208.379 7.3059 208.386 6.93285C207.005 7.17528 205.47 6.34886 205.458 7.04166ZM210.798 6.81502C210.281 6.8593 209.421 6.79099 209.418 6.95087C209.935 6.95988 210.794 7.02819 210.798 6.81502ZM150.393 5.92058C150.048 5.96786 149.36 5.90255 149.358 6.06243C149.874 6.07144 150.39 6.08045 150.393 5.92058ZM186.528 6.71125C187.227 6.13704 187.205 7.36278 186.528 6.71125V6.71125ZM187.561 6.72927C187.39 6.67297 187.903 6.84186 187.561 6.72927V6.72927ZM212.344 7.00194C211.999 7.04922 211.311 6.98391 211.309 7.14379C211.825 7.1528 212.341 7.16181 212.344 7.00194ZM220.773 7.309C220.602 7.2527 221.116 7.42159 220.773 7.309V7.309ZM190.142 6.77433C189.625 6.81861 189.11 6.7563 189.107 6.91618C189.452 6.8689 189.967 6.9312 190.142 6.77433ZM193.065 6.98527C193.067 6.82539 192.207 6.81037 192.032 6.96725C192.548 6.97626 192.889 7.19544 193.065 6.98527ZM213.371 7.33972C213.2 7.28342 213.713 7.45231 213.371 7.33972V7.33972ZM221.803 7.4869C221.632 7.4306 222.145 7.59949 221.803 7.4869V7.4869ZM231.612 7.65812C231.776 8.14075 233.68 7.53428 231.612 7.65812C231.096 7.6491 231.444 7.44194 231.612 7.65812ZM194.958 7.01831C194.613 7.0656 194.097 7.00329 194.094 7.16317C194.44 7.11588 194.955 7.17819 194.958 7.01831ZM198.397 7.23826C198.225 7.18197 198.739 7.35086 198.397 7.23826V7.23826ZM210.443 7.44853C210.099 7.38923 210.613 7.55812 210.443 7.44853V7.44853ZM212.852 7.49058C212.855 7.3307 211.995 7.26239 211.819 7.47256C212.336 7.48157 212.676 7.70075 212.852 7.49058ZM219.219 7.60172C219.048 7.54542 219.561 7.71431 219.219 7.60172V7.60172ZM210.776 8.09405C209.927 7.38622 207.001 7.38845 205.449 7.5213C206.993 7.81479 209.404 7.75026 210.776 8.09405ZM213.882 7.66848C213.71 7.61219 214.224 7.78107 213.882 7.66848V7.66848ZM218.872 7.75559C219.38 8.24424 221.456 7.64077 218.872 7.75559C216.804 7.87943 218.708 7.27295 218.872 7.75559ZM221.8 7.64678C221.455 7.69406 220.768 7.62876 220.765 7.78863C221.11 7.74135 221.798 7.80666 221.8 7.64678ZM233.155 8.0049C232.984 7.94861 233.497 8.1175 233.155 8.0049V8.0049ZM199.426 7.41616C196.332 7.20222 198.385 7.87778 199.426 7.41616V7.41616ZM200.456 7.59407C200.796 7.81324 200.973 7.54978 200.456 7.59407C199.94 7.58506 200.116 7.37489 200.456 7.59407ZM217.834 8.05733C217.833 8.11062 217.832 8.16391 217.831 8.2172C218.866 8.12864 218.515 8.49568 219.203 8.5077C219.2 8.66758 218.341 8.59926 218.337 8.81243C220.056 8.94906 220.921 8.69761 219.203 8.5077C218.866 8.07535 221.611 8.65633 221.273 8.27728C219.723 8.30354 219.558 7.92749 217.834 8.05733C217.666 7.84115 215.606 7.48535 215.255 7.85239C215.942 7.97099 216.628 8.08959 217.834 8.05733ZM23.5514 4.50619C23.2073 4.50018 22.5189 4.48816 22.5161 4.64804C22.8612 4.60075 23.5486 4.66606 23.5514 4.50619ZM202.002 7.78098C201.66 7.66839 202.344 7.89357 202.002 7.78098V7.78098ZM230.74 8.28261C230.398 8.17002 231.083 8.3952 230.74 8.28261V8.28261ZM198.041 7.87177C195.979 7.67585 197.862 8.29511 198.041 7.87177C198.385 7.87778 198.558 7.88078 198.902 7.88679C198.723 8.25683 201.817 8.52407 202.511 8.21633C200.961 8.24259 200.104 8.0144 198.902 7.88679C198.905 7.67362 198.044 7.71189 198.041 7.87177ZM208.365 8.15858C208.872 8.64723 210.949 8.04376 208.365 8.15858C207.337 7.87409 204.925 7.99192 203.379 7.80501C203.89 8.08048 201.994 8.26061 203.368 8.39123C203.887 8.29365 203.72 7.97089 204.408 7.98291C204.055 8.50983 206.647 7.91537 208.365 8.15858ZM214.906 8.16614C213.353 8.35228 212.332 7.69474 211.808 8.11207C212.15 8.22466 214.556 8.47989 214.906 8.16614ZM222.822 8.30431C222.479 8.19172 222.993 8.36061 222.822 8.30431V8.30431ZM195.974 7.94231C195.803 7.88601 196.317 8.0549 195.974 7.94231V7.94231ZM201.997 8.04744C201.654 7.98814 202.34 8.16003 201.997 8.04744V8.04744ZM215.245 8.43861C216.106 8.45363 216.624 8.35605 216.799 8.19918C215.939 8.13087 215.592 8.28474 215.245 8.43861ZM217.31 8.47465C216.62 8.56923 217.307 8.68783 217.31 8.47465C217.313 8.31478 218 8.43338 217.31 8.47465ZM196.485 8.27108C196.314 8.21478 196.827 8.38367 196.485 8.27108V8.27108ZM211.803 8.37853C211.286 8.42282 210.427 8.3545 210.424 8.51438C210.94 8.52339 211.8 8.59171 211.803 8.37853ZM203.882 8.56012C203.711 8.50382 204.224 8.67271 203.882 8.56012V8.56012ZM205.95 8.43628C205.433 8.48057 204.917 8.41826 204.914 8.57814C205.26 8.53085 205.947 8.59616 205.95 8.43628ZM206.46 8.76505C207.323 8.67348 208.527 8.69451 208.875 8.48735C207.671 8.46632 206.466 8.4453 206.46 8.76505ZM213.349 8.56545C213.004 8.61273 212.317 8.54743 212.314 8.7073C212.659 8.66002 213.347 8.72533 213.349 8.56545ZM213.863 8.73434C214.56 8.26672 215.057 9.34158 213.863 8.73434V8.73434ZM209.386 8.81612C208.172 9.32802 211.113 8.4731 209.386 8.81612V8.81612ZM212.311 8.86718C211.966 8.91447 211.279 8.84916 211.276 9.00903C211.793 8.96475 212.309 9.02706 212.311 8.86718ZM217.815 9.12318C217.644 9.06688 218.158 9.23577 217.815 9.12318V9.12318ZM222.806 9.21029C222.463 9.15099 222.976 9.31988 222.806 9.21029V9.21029ZM213.338 9.20496C213.168 9.09537 213.681 9.31755 213.338 9.20496V9.20496ZM218.842 9.46096C217.981 9.49923 218.839 9.62084 218.842 9.46096C219.531 9.47297 220.219 9.48499 220.222 9.32511C219.187 9.41367 218.68 8.87173 218.842 9.46096ZM219.182 9.73343C219.88 9.15922 219.859 10.385 219.182 9.73343V9.73343ZM192.503 9.5876C192.332 9.5313 192.845 9.70019 192.503 9.5876V9.5876ZM211.257 10.0749C211.602 10.0809 211.946 10.0869 212.29 10.0929C212.292 9.98633 212.294 9.87974 212.296 9.77316C211.951 9.76715 211.607 9.76114 211.263 9.75513C211.261 9.86172 211.259 9.9683 211.257 10.0749ZM197.485 10.1543C196.796 10.1956 197.482 10.3142 197.485 10.1543C198.686 10.3885 198.871 9.64545 198.01 9.68372C197.664 9.7843 197.489 9.94117 197.485 10.1543ZM212.806 10.1019C212.635 10.0456 213.149 10.2145 212.806 10.1019V10.1019ZM199.378 10.1874C199.207 10.1311 199.72 10.3 199.378 10.1874V10.1874ZM213.83 10.5996C213.476 11.1798 216.922 10.9734 216.242 10.4818C215.726 10.4727 215.21 10.4637 214.866 10.4577C214.177 10.4457 214.525 10.2385 214.866 10.4577C214.863 10.6176 214.689 10.7212 214.345 10.7152C214.347 10.6086 214.175 10.6056 213.83 10.5996C212.973 10.4247 210.397 10.0599 210.389 10.5395C211.25 10.5012 211.937 10.5665 211.761 10.83C213.136 10.9606 212.798 10.5816 213.83 10.5996ZM172.186 9.87267C172.015 9.76308 172.529 9.93197 172.186 9.87267V9.87267ZM191.978 10.0582C191.634 10.0522 190.946 10.0402 190.943 10.2001C191.46 10.1558 191.975 10.2181 191.978 10.0582ZM219.679 10.8083C219.848 11.0245 220.194 10.9239 220.196 10.8173C220.375 10.394 222.258 11.0132 220.196 10.8173C220.024 10.8143 219.852 10.8113 219.679 10.8083C219.34 10.5358 216.934 10.2806 216.754 10.7572C217.78 11.1483 218.132 10.728 219.679 10.8083ZM109.2 8.87987C106.953 9.42704 107.314 8.47378 109.2 8.87987V8.87987ZM169.6 10.0941C168.909 10.1886 169.768 10.3102 169.6 10.0941C169.095 9.39226 172.005 10.3493 169.6 10.0941ZM171.665 10.1301C171.493 10.0738 172.007 10.2427 171.665 10.1301V10.1301ZM172.697 10.1481C173.224 9.57093 173.202 10.7967 172.697 10.1481V10.1481ZM175.106 10.1902C175.446 10.4627 175.795 10.2022 175.106 10.1902C174.589 10.2345 174.766 9.97102 175.106 10.1902ZM188.529 10.4245C187.315 10.9364 190.256 10.0815 188.529 10.4245V10.4245ZM103.341 9.25738C103.513 9.26038 103.857 9.26639 104.201 9.2724C104.203 9.16581 104.205 9.05922 104.207 8.95264C103.863 8.94663 103.518 8.94062 103.346 8.93762C103.345 9.04421 103.343 9.15079 103.341 9.25738ZM105.753 9.13955C105.582 9.08326 106.095 9.25214 105.753 9.13955V9.13955ZM112.639 9.09982C110.219 9.69728 114.347 9.87596 112.639 9.09982V9.09982ZM142.921 9.94824C143.61 9.90697 145.499 10.1532 145.333 9.83042C144.301 9.7591 143.273 9.47462 142.921 9.94824ZM177.685 10.3951C177.342 10.3358 177.855 10.5047 177.685 10.3951V10.3951ZM178.545 10.4101C178.374 10.3539 178.888 10.5227 178.545 10.4101V10.4101ZM184.052 10.5063C183.881 10.45 184.394 10.6189 184.052 10.5063V10.5063ZM185.601 10.5333C185.258 10.474 185.771 10.6429 185.601 10.5333V10.5333ZM191.455 10.4756C190.937 10.5198 190.078 10.4515 190.075 10.6114C190.591 10.6204 191.451 10.6887 191.455 10.4756ZM221.223 11.1551C221.052 11.0988 221.565 11.2677 221.223 11.1551V11.1551ZM133.972 9.79205C133.284 9.78003 133.288 9.56686 132.426 9.60514C131.731 9.96617 134.139 10.1148 133.972 9.79205ZM136.898 9.84311C134.668 9.37772 135.684 10.355 136.898 9.84311V9.84311ZM196.958 10.7316C193.692 10.5146 195.918 11.1932 196.958 10.7316V10.7316ZM198.335 10.7556C197.99 10.8029 197.475 10.7406 197.472 10.9004C197.817 10.8532 198.332 10.9155 198.335 10.7556ZM202.462 10.9876C202.119 10.9283 202.633 11.0971 202.462 10.9876V10.9876ZM204.355 11.0206C204.696 11.2398 205.044 11.0326 204.355 11.0206C203.839 11.0116 204.015 10.8014 204.355 11.0206ZM97.315 9.31212C97.8229 9.80077 99.8991 9.1973 97.315 9.31212C96.6267 9.30011 96.9746 9.09294 97.315 9.31212ZM99.7242 9.35418C99.207 9.39846 99.5493 9.51105 99.7214 9.51405C99.7186 9.67393 98.8591 9.60562 98.3419 9.6499C98.5085 9.97266 97.3057 9.84505 97.302 10.0582C98.3326 10.1828 98.6805 9.97566 99.1968 9.98468C100.399 10.1656 102.635 10.2579 103.332 9.73701C101.438 9.81056 101.956 9.71298 100.232 9.84282C100.752 9.63866 100.754 9.53208 99.7214 9.51405C99.7224 9.46076 99.7233 9.40747 99.7242 9.35418C100.587 9.26261 99.727 9.1943 99.7242 9.35418ZM102.308 9.23935C101.963 9.28664 101.276 9.22133 101.273 9.38121C101.618 9.33392 102.306 9.39923 102.308 9.23935ZM130.006 10.2026C130.346 10.4218 130.695 10.1613 130.006 10.2026C130.01 9.98942 130.185 9.77926 129.498 9.71395C129.667 9.87683 129.323 9.87082 128.979 9.86482C128.802 10.1283 129.49 10.1403 130.006 10.2026ZM134.486 9.96094C134.314 9.90464 134.828 10.0735 134.486 9.96094V9.96094ZM138.444 10.03C138.272 9.97373 138.786 10.1426 138.444 10.03V10.03ZM147.908 10.1952C147.737 10.1389 148.251 10.3078 147.908 10.1952V10.1952ZM155.308 10.3244C155.137 10.2681 155.65 10.437 155.308 10.3244V10.3244ZM166.666 10.5226C166.495 10.4663 167.008 10.6352 166.666 10.5226V10.5226ZM174.065 10.6518C173.894 10.5955 174.408 10.7644 174.065 10.6518V10.6518ZM207.797 11.0807C207.452 11.128 206.937 11.0657 206.762 11.2225C207.279 11.1782 207.794 11.2405 207.797 11.0807ZM210.723 11.1317C210.377 11.179 209.862 11.1167 209.859 11.2766C210.204 11.2293 210.72 11.2916 210.723 11.1317ZM218.811 11.2729C218.121 11.3142 217.262 11.2459 217.259 11.4058C217.775 11.4148 218.635 11.4831 218.811 11.2729ZM223.626 11.5169C224.323 11.0493 226.377 11.7248 223.626 11.5169C222.767 11.4486 221.738 11.2174 220.701 11.4658C221.043 11.5784 223.449 11.8336 223.626 11.5169ZM95.7634 9.44497C96.462 8.87076 96.4416 10.0432 95.7634 9.44497V9.44497ZM110.221 9.53741C109.876 9.58469 109.189 9.51938 109.186 9.67926C109.531 9.63198 110.219 9.69728 110.221 9.53741ZM145.841 10.3191C145.669 10.2628 146.183 10.4317 145.841 10.3191V10.3191ZM215.191 11.5296C215.02 11.4733 215.534 11.6422 215.191 11.5296V11.5296ZM93.8677 9.5718C90.6018 9.30156 92.6547 10.0304 93.8677 9.5718C93.8761 9.09217 95.93 9.76773 93.8677 9.5718ZM105.742 9.77906C105.571 9.72277 106.084 9.89166 105.742 9.77906V9.77906ZM106.774 9.79709C106.431 9.73779 107.116 9.90968 106.774 9.79709V9.79709ZM123.122 10.0824C123.65 9.45194 123.628 10.6777 123.122 10.0824V10.0824ZM124.499 10.1065C124.328 10.0502 124.841 10.2191 124.499 10.1065V10.1065ZM134.996 10.2897C134.825 10.2334 135.339 10.4023 134.996 10.2897V10.2897ZM214.331 11.5146C213.814 11.5589 213.298 11.4965 213.296 11.6564C213.641 11.6091 214.328 11.6744 214.331 11.5146ZM111.246 10.0351C110.903 9.92247 111.416 10.1447 111.246 10.0351V10.0351ZM118.126 10.3151C118.816 10.2738 119.847 10.3451 119.681 10.0224C119.336 10.0164 118.992 10.0104 118.648 10.0043C118.645 10.1642 118.129 10.1552 118.126 10.3151ZM133.961 10.4316C133.791 10.322 134.303 10.5442 133.961 10.4316V10.4316ZM89.3879 9.81346C87.8391 9.78643 85.4336 9.5312 85.4252 10.0108C86.7982 10.248 87.6652 9.89001 89.3879 9.81346C90.0781 9.71889 89.3916 9.60029 89.3879 9.81346ZM117.094 10.2971C116.924 10.1875 117.437 10.3564 117.094 10.2971V10.2971ZM94.89 10.176C95.7504 10.1911 97.2964 10.378 96.7876 9.94262C95.9272 9.9276 95.0658 9.96588 94.89 10.176ZM111.585 10.3075C112.436 10.8555 112.972 9.74534 111.585 10.3075V10.3075ZM113.134 10.3346C112.963 10.2783 113.476 10.4472 113.134 10.3346V10.3346ZM222.237 12.239C222.065 12.1827 222.579 12.3516 222.237 12.239V12.239ZM226.196 12.2015C225.852 12.1955 225.164 12.1834 225.162 12.29C225.506 12.296 226.195 12.308 226.196 12.2015ZM90.9264 10.4267C90.7543 10.4237 90.5823 10.4207 90.4102 10.4177C87.9982 10.5355 90.9385 9.73391 90.4102 10.4177C90.4074 10.5776 90.9246 10.5333 90.9264 10.4267C91.6194 10.1723 94.5384 10.5964 94.3765 10.0072C93.5114 10.2586 90.7636 9.89078 90.9264 10.4267ZM80.4292 10.2435C79.739 10.3381 80.4254 10.4567 80.4292 10.2435C79.925 9.54167 82.8356 10.4454 80.4292 10.2435ZM106.245 10.5342C106.771 9.95696 106.75 11.1827 106.245 10.5342V10.5342ZM116.054 10.7054C115.883 10.6491 116.396 10.818 116.054 10.7054V10.7054ZM245.463 12.9642C244.774 12.9522 244.778 12.739 243.917 12.7773C243.222 13.1383 245.629 13.287 245.463 12.9642ZM101.252 10.6069C100.892 11.5069 101.607 9.97344 101.252 10.6069V10.6069ZM78.0172 10.3613C77.6739 10.302 78.3595 10.4739 78.0172 10.3613V10.3613ZM88.3451 10.3817C87.8289 10.3726 86.9684 10.3576 86.7936 10.5145C87.4828 10.4732 88.3423 10.5415 88.3451 10.3817ZM74.914 10.627C74.2248 10.6683 75.0833 10.7899 74.914 10.627C76.46 10.8139 76.8061 10.7133 77.5009 10.3523C75.9503 10.4318 76.4665 10.4409 74.9196 10.3072C74.9178 10.4138 74.9159 10.5204 74.914 10.627ZM83.3463 10.7742C84.895 10.8012 85.9285 10.7659 86.4494 10.5085C84.9015 10.4282 83.8672 10.5167 83.3463 10.7742ZM80.418 10.883C79.2143 10.8087 79.5548 11.0279 80.4161 10.9896C80.5845 11.2058 80.9305 11.1052 80.9324 10.9986C82.1361 11.0729 82.4849 10.8125 82.8328 10.6053C81.9714 10.6436 80.7668 10.6225 80.418 10.883ZM96.2527 10.9995C96.0825 10.8899 96.595 11.1121 96.2527 10.9995V10.9995ZM107.61 11.1977C107.44 11.0881 107.953 11.3103 107.61 11.1977V11.1977ZM85.9248 10.9791C85.7545 10.8695 86.268 11.0384 85.9248 10.9791V10.9791ZM75.9307 11.551C75.2405 11.6456 75.928 11.7109 75.9307 11.551C76.8005 11.0331 79.0274 11.6584 79.3808 11.1314C78.8646 11.1224 79.0395 10.9656 78.8692 10.856C77.4953 10.6721 77.4879 11.0984 75.9419 10.9115C75.9382 11.1247 75.9345 11.3378 75.9307 11.551ZM91.7738 11.1878C91.6027 11.1315 92.1161 11.3004 91.7738 11.1878V11.1878ZM68.5394 10.9422C68.3682 10.8859 68.8817 11.0548 68.5394 10.9422V10.9422ZM74.3903 11.0443C75.2415 11.5923 75.7773 10.4821 74.3903 11.0443V11.0443ZM98.3131 11.302C97.7959 11.3463 97.2797 11.3372 97.2778 11.4438C97.622 11.4498 98.3103 11.4619 98.3131 11.302ZM111.217 11.6871C110.874 11.6278 111.387 11.7967 111.217 11.6871V11.6871ZM68.0232 10.9332C67.678 10.9805 66.9906 10.9152 66.9878 11.075C67.5041 11.0841 68.0204 11.0931 68.0232 10.9332ZM69.5691 11.1201C69.2259 11.0608 69.9114 11.2327 69.5691 11.1201V11.1201ZM87.294 11.4295C87.2968 11.2696 88.1563 11.3379 87.294 11.4295C86.9517 11.3169 85.921 11.1923 85.9173 11.4055C86.2596 11.5181 87.2894 11.696 87.294 11.4295ZM72.4918 11.331C70.0789 11.5022 66.8111 11.3385 66.453 12.1319C68.8696 11.7476 71.2732 12.1094 72.4918 11.331C73.3532 11.2928 73.3494 11.5059 74.0378 11.518C74.7326 11.1569 72.3244 11.0616 72.4918 11.331ZM96.2425 11.5857C95.8974 11.633 95.3821 11.5707 95.2072 11.7275C95.7244 11.6833 96.2397 11.7456 96.2425 11.5857ZM142.359 12.5506C142.188 12.4943 142.701 12.6632 142.359 12.5506V12.5506ZM67.5013 11.2439C67.1562 11.2912 66.4688 11.2259 66.466 11.3858C66.9832 11.3415 67.4985 11.4038 67.5013 11.2439ZM84.3658 11.5383C84.0207 11.5856 83.3332 11.5203 83.3304 11.6802C83.8476 11.6359 84.363 11.6982 84.3658 11.5383ZM92.7952 11.8454C92.624 11.7891 93.1375 11.958 92.7952 11.8454V11.8454ZM80.3994 11.9489C78.3325 12.0194 80.2357 11.4662 80.3994 11.9489C80.3975 12.0554 80.3957 12.162 80.3947 12.2153C81.9407 12.4022 81.0915 11.7477 81.9538 11.6561C80.751 11.5285 81.2608 11.9106 80.3994 11.9489ZM86.4252 11.8941C86.082 11.8348 86.5954 12.0037 86.4252 11.8941V11.8941ZM88.8372 11.7763C88.4921 11.8236 87.8047 11.7583 87.8019 11.9181C88.147 11.8708 88.8344 11.9362 88.8372 11.7763ZM105.699 12.2305C105.528 12.1742 106.041 12.3431 105.699 12.2305V12.2305ZM77.4739 11.8978C77.8144 12.117 77.9911 11.8535 77.4739 11.8978C75.407 11.9683 77.3102 11.4151 77.4739 11.8978ZM84.3574 12.0179C84.1862 11.9616 84.6997 12.1305 84.3574 12.0179V12.0179ZM92.7896 12.1651C92.6184 12.1088 93.1319 12.2777 92.7896 12.1651V12.1651ZM74.0248 12.2641C72.9969 11.9796 72.9904 12.3526 71.4435 12.219C69.3756 12.3428 71.4509 11.7927 71.4435 12.219C70.9235 12.4232 71.0937 12.5327 71.9542 12.5478C72.462 13.0364 74.5382 12.4329 71.9542 12.5478C72.13 12.3376 73.1606 12.4622 74.022 12.4239C74.0183 12.6371 74.3643 12.5365 74.3662 12.4299C74.5382 12.4329 74.7103 12.4359 74.8824 12.439C75.0461 12.9216 76.9502 12.3151 74.8824 12.439C75.2322 12.1252 75.7484 12.1342 76.434 12.3061C76.6116 11.9894 76.0982 11.8205 74.8926 11.8527C75.2312 12.1785 74.0285 12.0509 74.0248 12.2641ZM63.0113 12.0718C61.8067 12.0508 62.1471 12.27 63.0085 12.2317C63.0075 12.285 63.0066 12.3383 63.0057 12.3916C64.7256 12.4749 65.2474 12.1642 66.1116 11.966C65.426 11.7941 63.0187 11.6455 63.0113 12.0718ZM93.8175 12.4496C93.6463 12.3933 94.1598 12.5622 93.8175 12.4496V12.4496ZM79.3594 12.3572C79.1883 12.3009 79.7018 12.4698 79.3594 12.3572V12.3572ZM89.8567 12.5404C89.6856 12.4841 90.199 12.653 89.8567 12.5404V12.5404ZM67.4799 12.4697C67.3088 12.4134 67.8222 12.5823 67.4799 12.4697V12.4697ZM87.2726 12.6552C86.9275 12.7025 86.4122 12.6402 86.4094 12.8001C86.7545 12.7528 87.2698 12.8151 87.2726 12.6552ZM90.8836 12.8782C90.5404 12.8189 91.0539 12.9878 90.8836 12.8782V12.8782ZM80.3808 13.0147C78.1465 12.8158 80.885 13.7165 80.3808 13.0147C79.8757 12.3662 81.9305 12.9884 80.3808 13.0147ZM84.3444 12.764C83.9993 12.8113 83.3118 12.746 83.3091 12.9059C83.8262 12.8616 84.3416 12.9239 84.3444 12.764ZM73.4918 13.2143C73.3215 13.1047 73.8341 13.3269 73.4918 13.2143V13.2143ZM78.4823 13.3014C78.14 13.1888 78.6525 13.411 78.4823 13.3014V13.3014ZM87.7749 13.4636C88.4744 12.8361 88.453 14.0619 87.7749 13.4636V13.4636ZM70.9077 13.3291C71.6072 12.7016 71.5858 13.9274 70.9077 13.3291V13.3291ZM69.0073 13.7224C68.3171 13.817 69.0036 13.9356 69.0073 13.7224C69.6956 13.7344 70.3831 13.7998 70.3868 13.5866C69.8714 13.5243 69.7031 13.3081 69.0147 13.2961C69.0129 13.4027 69.0101 13.5626 69.0073 13.7224ZM71.9383 13.4537C72.1076 13.6166 71.9328 13.7735 72.449 13.7825C72.4527 13.5693 73.3113 13.6909 73.4871 13.4808C72.7997 13.4155 72.6295 13.3059 71.9383 13.4537ZM85.3611 13.688C85.1899 13.6317 85.7034 13.8006 85.3611 13.688V13.688ZM77.4423 13.7097C77.2711 13.6534 77.7846 13.8223 77.4423 13.7097V13.7097ZM82.43 13.9567C82.0868 13.8974 82.6002 14.0663 82.43 13.9567V13.9567ZM66.0818 13.6714C64.5238 14.1773 67.7943 14.181 66.0818 13.6714V13.6714ZM74.342 13.8155C73.9969 13.8628 73.4815 13.8005 73.4787 13.9604C73.8238 13.9131 74.3392 13.9754 74.342 13.8155ZM72.4462 13.9424C72.1011 13.9897 71.4137 13.9244 71.4109 14.0842C71.756 14.037 72.4434 14.1023 72.4462 13.9424ZM61.5918 14.4992C62.628 14.3041 64.6912 14.4467 65.0437 13.9731C63.4931 14.0527 61.9434 14.0789 61.5918 14.4992ZM69.5152 14.2111C69.1719 14.1518 69.8575 14.3237 69.5152 14.2111V14.2111ZM60.0374 14.792C60.0411 14.5788 62.1099 14.4017 60.5639 14.2148C60.2188 14.262 58.4914 14.6051 60.0374 14.792ZM57.6254 14.9098C57.7975 14.9128 58.1417 14.9188 58.4859 14.9248C59.1779 14.7237 59.0086 14.5608 57.978 14.4362C58.1463 14.6523 57.7994 14.8062 57.6254 14.9098ZM69.5049 14.7973C69.1617 14.738 69.8473 14.9099 69.5049 14.7973V14.7973ZM56.0766 14.8828C56.5929 14.8918 56.591 14.9984 57.1064 15.0607C56.9389 14.7912 57.1157 14.5277 56.0822 14.563C56.0804 14.6696 56.0785 14.7762 56.0766 14.8828ZM66.9209 14.9121C67.6194 14.3379 67.598 15.5636 66.9209 14.9121V14.9121ZM65.5414 15.048C65.1981 14.9887 65.8837 15.1606 65.5414 15.048V15.048ZM61.575 15.4585C61.2318 15.3992 61.7453 15.5681 61.575 15.4585V15.4585ZM173.718 0.996817C173.547 0.887226 174.061 1.05612 173.718 0.996817V0.996817ZM119.853 0.163221C119.855 0.0566353 120.371 0.0656466 120.715 0.0716542C120.713 0.17824 120.197 0.169229 119.853 0.163221ZM122.262 0.205274C122.095 -0.117487 123.984 0.182018 124.673 0.140741C124.32 0.614368 123.812 0.179014 122.262 0.205274ZM183.178 1.42849C183.006 1.37219 183.52 1.54108 183.178 1.42849V1.42849ZM186.617 1.64844C186.445 1.59215 186.959 1.76103 186.617 1.64844V1.64844ZM190.572 1.87741C190.401 1.82111 190.914 1.99 190.572 1.87741V1.87741ZM194.524 2.26625C194.7 2.05608 195.559 2.12439 196.076 2.13341C196.073 2.29328 195.213 2.22497 194.524 2.26625ZM196.589 2.30229C196.418 2.246 196.932 2.41489 196.589 2.30229V2.30229ZM103.832 0.843137C103.661 0.786841 104.174 0.95573 103.832 0.843137V0.843137ZM198.996 2.50422C198.824 2.44793 199.338 2.61682 198.996 2.50422V2.50422ZM97.462 0.891877C97.6424 0.415246 99.5252 1.03451 97.462 0.891877V0.891877ZM99.0108 0.918911C99.0136 0.759031 99.5298 0.768043 99.874 0.77405C99.8712 0.933929 99.3559 0.871625 99.0108 0.918911ZM102.455 0.819107C99.1894 0.548866 101.242 1.27771 102.455 0.819107V0.819107ZM200.542 2.69114C200.544 2.53126 201.233 2.54327 201.577 2.54928C201.574 2.70916 200.887 2.64385 200.542 2.69114ZM92.4696 0.911351C92.6445 0.754477 93.504 0.82279 93.5021 0.929374C93.3254 1.19283 92.9859 0.920363 92.4696 0.911351ZM97.462 0.891877C96.7727 0.933154 97.4592 1.05175 97.462 0.891877V0.891877ZM89.0251 1.01115C88.8539 0.954857 89.3674 1.12375 89.0251 1.01115V1.01115ZM91.0901 1.0472C90.7469 0.987899 91.2604 1.15679 91.0901 1.0472V1.0472ZM85.5834 0.951079C85.0606 1.31512 82.6551 1.05989 82.1333 1.37064C80.591 0.970555 84.2058 0.980341 85.5834 0.951079ZM97.968 1.48711C97.6229 1.53439 96.9355 1.46908 96.9327 1.62896C95.0416 1.48934 97.9764 1.00747 97.968 1.48711ZM210.857 3.45758C211.031 3.30071 211.547 3.36301 211.892 3.31573C211.889 3.47561 211.374 3.4133 210.857 3.45758ZM78.1753 1.30155C77.8321 1.24225 78.5176 1.41414 78.1753 1.30155V1.30155ZM79.552 1.32558C79.5548 1.1657 80.2422 1.23101 80.5873 1.18372C80.5845 1.3436 80.0692 1.2813 79.552 1.32558ZM91.0818 1.52683C90.3888 1.78128 86.6029 1.7152 86.0913 1.43973C88.4986 1.58836 89.5367 1.28663 91.0818 1.52683ZM91.0818 1.52683C90.9125 1.36395 91.772 1.43226 91.0818 1.52683V1.52683ZM92.4585 1.55086C92.6333 1.39399 93.3208 1.4593 94.01 1.41802C93.8342 1.62819 93.1468 1.56288 92.4585 1.55086ZM97.968 1.48711C98.3085 1.70629 98.4843 1.49612 97.968 1.48711V1.48711ZM212.919 3.65351C212.921 3.54692 213.266 3.49964 213.435 3.66252C213.263 3.65952 213.091 3.65651 212.919 3.65351ZM74.2145 1.39234C73.8713 1.33304 74.3848 1.50193 74.2145 1.39234V1.39234ZM85.056 1.58158C85.5824 1.00437 85.562 2.17681 85.056 1.58158V1.58158ZM80.5733 1.98312C80.2292 1.97711 79.885 1.9711 79.5408 1.96509C80.0664 1.44118 82.6449 1.64611 84.5397 1.57257C84.8736 2.1648 81.6142 1.5215 80.5733 1.98312ZM215.839 4.02433C215.842 3.81116 216.529 3.92976 215.839 4.02433V4.02433ZM66.2958 1.41405C63.708 1.74204 67.838 1.81413 66.2958 1.41405V1.41405ZM67.6697 1.59796C67.4994 1.48837 68.012 1.71055 67.6697 1.59796V1.59796ZM78.1697 1.62131C78.5139 1.62731 78.686 1.63032 79.0302 1.63633C79.0283 1.74291 79.0264 1.8495 79.0246 1.95608C78.6804 1.95008 78.5083 1.94707 78.1641 1.94106C78.166 1.83448 78.1679 1.72789 78.1697 1.62131ZM92.4501 2.0305C92.6305 1.55387 94.5133 2.17313 92.4501 2.0305V2.0305ZM94.5151 2.06654C94.3468 1.85037 95.2053 1.97197 94.5151 2.06654V2.06654ZM76.0991 1.90502C77.6581 1.34583 77.8125 2.3614 76.0991 1.90502V1.90502ZM63.1908 1.78632C63.0196 1.73002 63.5331 1.89891 63.1908 1.78632V1.78632ZM225.29 4.93563C225.47 4.5123 227.353 5.13156 225.29 4.93563V4.93563ZM115.322 3.33598C115.324 3.22939 115.327 3.01622 115.844 3.02523C115.841 3.18511 116.184 3.24441 116.182 3.351C115.838 3.34499 115.666 3.34198 115.322 3.33598ZM150.433 3.62899C150.259 3.73257 150.427 3.94875 149.911 3.93974C150.085 3.83615 149.917 3.61998 150.433 3.62899ZM227.353 5.13156C227.009 5.07226 227.523 5.24115 227.353 5.13156V5.13156ZM102.415 3.11069C102.244 3.0544 102.758 3.22329 102.415 3.11069V3.11069ZM147.505 3.73781C147.677 3.74081 147.849 3.74381 148.021 3.74682C148.019 3.8534 147.502 3.89768 147.505 3.73781ZM160.925 4.13198C160.581 4.07268 161.095 4.24157 160.925 4.13198V4.13198ZM228.727 5.31546C228.555 5.25917 229.069 5.42806 228.727 5.31546V5.31546ZM49.7541 2.35142C49.583 2.29512 50.0964 2.46401 49.7541 2.35142V2.35142ZM230.273 5.50238C230.101 5.44608 230.615 5.61497 230.273 5.50238V5.50238ZM146.983 4.04855C150.423 4.21521 156.448 4.16046 160.4 4.6026C157.465 5.08446 153.354 3.94652 150.931 4.70386C150.254 3.99904 147.488 4.69707 146.983 4.04855ZM45.4464 2.59608C45.1041 2.48349 45.6175 2.65237 45.4464 2.59608V2.59608ZM161.26 4.61762C160.744 4.60861 161.093 4.34815 161.26 4.61762V4.61762ZM42.8632 2.65761C42.6921 2.60131 43.2055 2.7702 42.8632 2.65761V2.65761ZM182.083 4.98108C178.989 4.71384 181.043 5.38939 182.083 4.98108V4.98108ZM39.935 2.76642C39.9378 2.60654 40.7973 2.67485 41.4865 2.63358C41.3107 2.84374 40.4512 2.77543 39.935 2.76642ZM174.678 5.11838C174.846 5.38784 171.92 5.33678 172.788 4.92546C173.649 4.94048 174.336 5.00578 174.678 5.11838ZM174.678 5.11838C174.681 4.9585 175.368 5.0771 174.678 5.11838V5.11838ZM37.8671 2.89025C37.696 2.83396 38.2095 3.00285 37.8671 2.89025V2.89025ZM151.444 4.87274C151.447 4.71287 152.134 4.77817 151.444 4.87274V4.87274ZM157.808 5.14376C157.982 5.04018 157.814 4.82401 158.33 4.83302C158.327 4.9929 158.325 5.15277 157.808 5.14376ZM160.906 5.19783C160.905 5.25112 160.904 5.30442 160.903 5.35771C160.731 5.35471 160.559 5.3517 160.387 5.3487C160.384 5.50858 160.901 5.46429 160.903 5.35771C161.419 5.36672 162.108 5.37874 162.796 5.39075C162.795 5.44404 162.794 5.49734 162.793 5.55063C161.074 5.414 160.895 5.83734 159.346 5.81031C159.35 5.59714 159.18 5.48755 158.835 5.48154C159.011 5.27137 158.674 4.89232 159.363 4.85104C159.531 5.06722 160.392 5.08223 160.906 5.19783ZM159.354 5.33068C159.183 5.27438 159.697 5.44327 159.354 5.33068V5.33068ZM161.253 5.04396C161.256 4.88408 162.115 4.95239 161.253 5.04396V5.04396ZM36.4877 3.0261C36.3165 2.9698 36.83 3.13869 36.4877 3.0261V3.0261ZM160.906 5.19783C160.908 5.09125 160.909 5.03795 161.253 5.04396C161.251 5.15055 161.249 5.25713 160.906 5.19783ZM168.293 6.07309C168.108 6.76289 170.871 6.27803 171.732 6.29304C172.239 6.78169 170.865 6.65107 170.688 6.91453C169.828 6.84622 167.759 7.07664 168.284 6.55273C167.763 6.81018 166.9 6.95504 165.353 6.82142C165.183 6.71183 165.187 6.49866 164.843 6.49265C164.154 6.48064 164.502 6.27347 164.843 6.49265C164.837 6.81241 162.949 6.5129 162.258 6.60747C162.261 6.44759 162.778 6.45661 162.78 6.29673C161.746 6.38529 160.705 6.8469 159.336 6.39653C159.51 6.29295 159.167 6.23365 158.822 6.22764C158.996 6.12406 159.341 6.07677 159.344 5.9169C160.378 5.88162 160.027 6.24867 160.887 6.26368C161.056 6.47986 161.404 6.2727 160.887 6.26368C160.889 6.1571 160.891 6.05051 160.893 5.94393C161.925 5.96195 162.265 6.23442 163.816 6.15487C164.341 5.63096 161.236 6.00323 162.793 5.55063C163.31 5.55964 163.826 5.56865 164.342 5.57766C164.174 5.36149 163.484 5.40277 162.796 5.39075C162.799 5.23087 162.112 5.11227 162.802 5.07099C164.694 5.15733 164.691 5.31721 166.243 5.13107C166.06 5.76758 167.623 4.99522 167.784 5.63774C166.068 5.34124 167.43 6.16466 166.228 6.03705C165.367 6.02203 165.892 5.5514 164.858 5.58667C162.783 6.13685 167.082 6.42511 168.293 6.07309ZM33.3873 3.13191C33.2162 3.07561 33.7296 3.2445 33.3873 3.13191V3.13191ZM239.202 6.72443C237.135 6.84826 239.039 6.24179 239.202 6.72443V6.72443ZM31.4916 3.25875C31.4944 3.09887 32.0097 3.16117 32.5269 3.11689C32.5241 3.27677 31.8367 3.21146 31.4916 3.25875ZM239.202 6.72443C239.546 6.78373 240.063 6.73945 240.06 6.89932C239.717 6.84002 239.2 6.8843 239.202 6.72443ZM29.4238 3.38258C29.5996 3.17241 30.4591 3.24073 30.9753 3.24974C30.9725 3.40962 30.113 3.3413 29.4238 3.38258ZM145.929 5.25626C146.273 5.26227 146.617 5.26827 146.442 5.42515C146.098 5.41914 145.927 5.36284 145.929 5.25626ZM240.06 6.89932C240.404 6.90533 240.748 6.91134 240.573 7.06821C240.401 7.06521 240.058 7.00591 240.06 6.89932ZM240.573 7.06821C240.914 7.28739 241.263 7.02694 240.573 7.06821V7.06821ZM25.9774 3.58897C25.9792 3.48238 26.6676 3.4944 27.0118 3.50041C27.0099 3.60699 26.3216 3.59498 25.9774 3.58897ZM24.0816 3.71581C24.0844 3.55593 24.9439 3.62424 25.4611 3.57996C25.4574 3.79313 24.5979 3.72482 24.0816 3.71581ZM22.5301 3.84865C22.5329 3.68877 23.2203 3.75408 23.5654 3.70679C23.5626 3.86667 22.8742 3.85466 22.5301 3.84865ZM21.4948 3.99051C21.3236 3.93421 21.8371 4.1031 21.4948 3.99051V3.99051ZM137.484 5.85517C137.824 6.07435 138.172 5.86719 137.484 5.85517V5.85517ZM176.711 7.01967C175.679 6.94835 175.504 7.15852 174.643 7.1435C174.645 7.03691 174.647 6.93033 174.649 6.82374C173.959 6.86502 174.296 7.29737 172.75 7.11046C172.754 6.89729 173.27 6.9063 173.275 6.63984C174.993 6.82975 175.861 6.41843 176.717 6.69991C176.715 6.8065 176.713 6.91308 176.711 7.01967ZM19.0828 4.10833C19.0856 3.94845 19.6009 4.01076 20.1181 3.96648C20.1153 4.12635 19.4279 4.06104 19.0828 4.10833ZM177.743 7.03769C177.41 6.44546 179.463 7.12102 181.188 6.93789C181.184 7.15106 180.496 7.13904 180.663 7.40851C178.595 7.53234 179.64 6.85756 177.743 7.03769ZM190.984 7.8552C190.294 7.94977 186.853 7.8364 185.651 7.6555C185.483 7.43932 185.137 7.5399 185.135 7.64649C183.584 7.72604 184.456 7.10154 182.559 7.28167C182.729 7.39126 183.073 7.45056 183.589 7.45957C183.929 7.67875 181.348 7.6337 181.696 7.42653C183.257 6.76076 189.101 7.23594 190.984 7.8552ZM187.547 7.52866C187.203 7.52265 186.514 7.51064 186.511 7.67052C187.029 7.62623 187.545 7.63525 187.547 7.52866ZM188.577 7.70656C188.406 7.59697 188.92 7.76586 188.577 7.70656V7.70656ZM170.688 6.91453C170.852 7.39717 172.756 6.7907 170.688 6.91453V6.91453ZM176.711 7.01967C177.055 7.02567 177.399 7.03168 177.743 7.03769C177.569 7.19456 177.565 7.40773 176.705 7.33942C176.707 7.23284 176.709 7.12625 176.711 7.01967ZM242.62 8.17011C242.964 8.17612 243.136 8.17912 243.133 8.339C242.789 8.333 242.446 8.27369 242.62 8.17011ZM16.6605 4.81238C16.6689 4.33274 18.9032 4.53167 20.1097 4.44611C19.2456 4.64426 18.2093 4.83941 16.6605 4.81238ZM243.133 8.339C243.302 8.55518 243.651 8.29472 243.133 8.339V8.339ZM185.135 7.64649C185.307 7.64949 185.479 7.65249 185.651 7.6555C185.65 7.70879 185.132 7.80636 185.135 7.64649ZM190.984 7.8552C191.328 7.86121 191.672 7.86721 192.016 7.87322C192.014 8.0331 191.152 8.07137 190.984 7.8552ZM0.642573 5.33241C2.70668 5.42175 1.84532 5.46003 3.73454 5.70624C3.04155 5.96069 2.69179 6.27444 1.14302 6.2474C1.49556 5.77378 0.636062 5.70546 0.642573 5.33241ZM1.66486 5.93666C1.4937 5.88036 2.00717 6.04925 1.66486 5.93666V5.93666ZM5.11402 5.57039C4.9438 5.4608 5.45634 5.68298 5.11402 5.57039V5.57039ZM171.177 8.46903C171.007 8.35945 171.52 8.58163 171.177 8.46903V8.46903ZM179.609 8.61622C179.439 8.50663 179.952 8.72881 179.609 8.61622V8.61622ZM181.674 8.65226C181.332 8.53967 181.845 8.76185 181.674 8.65226V8.65226ZM186.493 8.73637C186.323 8.62678 186.835 8.84896 186.493 8.73637V8.73637ZM188.558 8.77242C188.388 8.66283 188.9 8.88501 188.558 8.77242V8.77242ZM190.454 8.64558C191.999 8.88578 192.52 8.62833 193.548 8.85952C193.545 9.0727 189.757 9.1132 190.454 8.64558ZM195.958 8.90158C193.711 9.39546 194.072 8.44219 195.958 8.90158V8.90158ZM4.2508 5.71525C3.90849 5.60266 4.42196 5.77155 4.2508 5.71525V5.71525ZM175.644 8.97347C175.473 8.91718 175.986 9.08607 175.644 8.97347V8.97347ZM178.056 8.85565C179.431 8.98626 178.217 9.49816 177.187 9.32026C177.363 9.1101 178.051 9.12211 178.056 8.85565ZM181.667 9.07861C181.669 8.97202 182.185 8.98103 182.53 8.93375C182.527 9.09362 182.011 9.08461 181.667 9.07861ZM183.56 9.11165C183.389 9.05535 183.902 9.22424 183.56 9.11165V9.11165ZM186.485 9.16271C186.314 9.10642 186.828 9.2753 186.485 9.16271V9.16271ZM189.067 9.20777C188.896 9.15147 189.409 9.32036 189.067 9.20777V9.20777ZM149.828 8.68279C150.527 8.10858 150.505 9.33431 149.828 8.68279V8.68279ZM155.851 8.78792C155.68 8.73162 156.194 8.90051 155.851 8.78792V8.78792ZM167.209 8.98617C167.212 8.82629 167.899 8.8916 167.209 8.98617V8.98617ZM172.716 9.08229C172.545 9.02599 173.058 9.19488 172.716 9.08229V9.08229ZM122.12 8.35906C122.122 8.19918 122.638 8.26148 123.155 8.2172C123.152 8.37708 122.465 8.31177 122.12 8.35906ZM124.529 8.40111C124.358 8.34481 124.871 8.5137 124.529 8.40111V8.40111ZM142.426 8.7135C142.255 8.6572 142.768 8.8261 142.426 8.7135V8.7135ZM167.209 8.98617C165.147 8.79024 167.029 9.4628 167.209 8.98617V8.98617ZM169.271 9.18209C168.928 9.12279 169.441 9.29168 169.271 9.18209V9.18209ZM179.08 9.35331C179.083 9.19343 179.77 9.25874 180.115 9.21145C180.113 9.37133 179.425 9.30602 179.08 9.35331ZM180.629 9.38034C180.632 9.22046 181.147 9.28277 181.664 9.23848C181.489 9.39536 180.974 9.33305 180.629 9.38034ZM182.006 9.40437C181.834 9.34807 182.348 9.51696 182.006 9.40437V9.40437ZM183.557 9.27153C183.901 9.27753 184.245 9.28354 184.59 9.28955C184.588 9.39613 184.586 9.50272 184.584 9.6093C184.24 9.6033 183.896 9.59729 183.552 9.59128C183.553 9.4847 183.555 9.37811 183.557 9.27153ZM190.438 9.55156C190.267 9.49526 190.78 9.66415 190.438 9.55156V9.55156ZM114.198 8.54064C114.89 8.33948 116.613 8.26293 117.126 8.43182C117.121 8.75158 115.06 8.44907 114.198 8.54064ZM117.643 8.44084C117.645 8.28096 118.333 8.34627 118.678 8.29898C118.675 8.45886 117.988 8.39355 117.643 8.44084ZM144.488 8.90942C144.145 8.85013 144.658 9.01901 144.488 8.90942V8.90942ZM176.152 9.46212C175.464 9.4501 175.811 9.24294 176.152 9.46212V9.46212ZM103.357 8.3514C103.013 8.2921 103.527 8.46099 103.357 8.3514V8.3514ZM112.649 8.5136C112.653 8.30043 113.339 8.41903 112.649 8.5136V8.5136ZM131.063 8.83501C130.891 8.77871 131.405 8.9476 131.063 8.83501V8.83501ZM171.159 9.53489C170.642 9.52588 170.818 9.31571 171.159 9.53489V9.53489ZM101.289 8.47523C101.118 8.41894 101.631 8.58783 101.289 8.47523V8.47523ZM114.198 8.54064C113.508 8.63521 114.195 8.70052 114.198 8.54064V8.54064ZM121.079 8.82067C121.082 8.6075 121.769 8.7261 121.079 8.82067V8.82067ZM127.621 8.77493C127.784 9.25757 125.894 9.06465 125.032 9.15622C125.387 8.52271 126.068 8.96107 127.621 8.77493ZM128.137 8.78394C128.826 8.74267 128.996 8.90555 128.992 9.11872C128.649 9.05942 128.647 9.166 128.474 9.21629C127.958 9.20728 128.134 8.94382 128.137 8.78394ZM153.256 9.54225C152.913 9.48295 152.911 9.58954 152.91 9.64283C152.393 9.68711 152.391 9.7937 151.875 9.78468C151.195 9.29303 152.57 9.42365 152.917 9.21649C153.262 9.22249 153.432 9.33208 153.256 9.54225ZM1.6509 6.73605C0.96163 6.77733 1.64811 6.89593 1.6509 6.73605V6.73605ZM99.221 8.59907C99.0508 8.48948 99.5642 8.65837 99.221 8.59907V8.59907ZM124.001 9.03161C123.831 8.92202 124.345 9.09091 124.001 9.03161V9.03161ZM129.508 9.12773C129.338 9.01814 129.851 9.18703 129.508 9.12773V9.12773ZM154.289 9.56027C154.816 8.92977 154.795 10.1555 154.289 9.56027V9.56027ZM97.3262 8.67261C97.155 8.61631 97.6685 8.7852 97.3262 8.67261V8.67261ZM145.338 9.51066C145.342 9.29749 148.095 9.34555 146.884 9.69757C147.057 9.64729 145.338 9.51066 145.338 9.51066ZM153.256 9.54225C153.772 9.55126 153.943 9.66085 153.768 9.81773C153.25 9.86201 152.907 9.80271 152.91 9.64283C153.082 9.64583 153.426 9.65184 153.256 9.54225ZM94.917 8.63056C94.5691 8.83772 94.223 8.9383 93.3626 8.92328C93.5375 8.7664 94.0565 8.61554 94.917 8.63056ZM95.2584 8.79644C95.0872 8.74015 95.6007 8.90904 95.2584 8.79644V8.79644ZM91.2948 9.04711C89.0577 9.00806 91.4752 8.57048 92.8491 8.75439C92.8445 9.02085 91.4706 8.83694 91.2948 9.04711ZM151.356 9.93555C151.357 9.88226 151.358 9.82897 151.358 9.77567C151.531 9.77868 151.703 9.78168 151.875 9.78468C151.874 9.83798 151.873 9.89127 151.872 9.94456C151.7 9.94156 151.528 9.93856 151.356 9.93555ZM243.597 11.3857C243.768 11.442 244.112 11.448 243.938 11.5516C243.766 11.5486 243.422 11.5426 243.597 11.3857ZM89.4018 9.01407C89.4046 8.85419 90.092 8.9195 89.4018 9.01407V9.01407ZM89.4018 9.01407C88.7116 9.10864 89.3981 9.22724 89.4018 9.01407V9.01407ZM84.4058 9.24672C84.2346 9.19042 84.7481 9.35931 84.4058 9.24672V9.24672ZM82.8542 9.37956C83.0291 9.22269 83.5444 9.28499 83.8895 9.23771C83.8867 9.39759 83.3714 9.33528 82.8542 9.37956ZM244.446 12.0402C244.79 12.0462 245.134 12.0522 244.959 12.2091C244.615 12.2031 244.444 12.1468 244.446 12.0402ZM73.0425 9.36822C72.8723 9.25863 73.3848 9.48082 73.0425 9.36822V9.36822ZM76.9958 9.70377C76.9977 9.59719 77.0005 9.43731 77.0033 9.27743C77.6916 9.28945 77.5149 9.55291 78.0302 9.61521C77.8562 9.71879 77.5111 9.76608 76.9958 9.70377ZM244.959 12.2091C245.3 12.4283 245.649 12.1678 244.959 12.2091V12.2091ZM79.9259 9.48837C77.3474 9.28344 79.4022 9.9057 79.9259 9.48837V9.48837ZM99.1968 9.98468C99.2005 9.77151 100.059 9.89311 99.1968 9.98468V9.98468ZM75.447 9.67674C75.4498 9.51686 76.3103 9.53188 76.4796 9.69476C76.1354 9.68876 75.7912 9.68275 75.447 9.67674ZM75.447 9.67674C75.4442 9.83662 74.928 9.82761 74.9252 9.98749C74.0648 9.97247 72.5132 10.1053 73.0378 9.63469C73.8927 9.96946 74.2415 9.70901 75.447 9.67674ZM70.9672 9.9184C71.6658 9.34419 71.6444 10.5699 70.9672 9.9184V9.9184ZM67.5171 10.338C67.7004 9.70145 69.7542 10.377 67.5171 10.338V10.338ZM69.0687 10.2051C69.0715 10.0452 69.5868 10.1075 70.104 10.0633C69.9291 10.2201 69.4138 10.1578 69.0687 10.2051ZM59.5984 10.3597C59.4281 10.2501 59.9407 10.4723 59.5984 10.3597V10.3597ZM67.5171 10.338C66.9953 10.6487 64.2475 10.2809 64.068 10.7042C63.3796 10.6922 62.6913 10.6802 62.0029 10.6682C63.2131 10.3694 65.1088 10.2426 67.5171 10.338ZM73.0239 10.4341C71.4751 10.407 73.529 11.0826 73.0239 10.4341V10.4341ZM245.454 13.4439C246.143 13.4559 247.168 13.9002 245.449 13.7636C245.451 13.657 245.452 13.5504 245.454 13.4439ZM80.4161 10.9896C80.4171 10.9363 80.4171 10.9363 80.418 10.883C80.7622 10.889 80.9343 10.892 80.9324 10.9986C80.7603 10.9956 80.5882 10.9926 80.4161 10.9896ZM62.0029 10.6682C60.1118 10.5286 61.9946 11.1478 62.0029 10.6682V10.6682ZM58.5556 10.9279C58.3845 10.8716 58.8979 11.0405 58.5556 10.9279V10.9279ZM57.6924 11.0727C57.3492 11.0134 57.8626 11.1823 57.6924 11.0727V11.0727ZM69.558 11.7596C69.2147 11.7003 69.9003 11.8722 69.558 11.7596V11.7596ZM5.01821 11.0595C5.87027 11.5542 2.77272 11.5001 3.64152 11.0355C4.15778 11.0445 4.50195 11.0505 5.01821 11.0595ZM63.0085 12.2317C63.0094 12.1784 63.0103 12.1251 63.0113 12.0718C63.3554 12.0778 63.6968 12.2437 63.0085 12.2317ZM74.022 12.4239C74.0229 12.3706 74.0238 12.3173 74.0248 12.2641C74.1959 12.3203 74.5401 12.3264 74.3662 12.4299C74.3662 12.4299 74.1941 12.4269 74.022 12.4239ZM50.6155 12.1753C51.314 11.6011 51.2927 12.8268 50.6155 12.1753V12.1753ZM52.6833 12.0515C51.1336 12.0777 53.1884 12.7 52.6833 12.0515V12.0515ZM50.0992 12.1663C49.9234 12.3765 49.5774 12.477 48.7169 12.462C48.8927 12.2518 49.2388 12.1513 50.0992 12.1663ZM68.5068 12.8074C68.5078 12.7542 68.5087 12.7009 68.5096 12.6476C68.8538 12.6536 69.024 12.7632 68.5068 12.8074ZM47.1654 12.5949C47.3458 12.1182 49.2276 12.7908 47.1654 12.5949V12.5949ZM47.1654 12.5949C45.1031 12.3989 47.1579 13.0212 47.1654 12.5949V12.5949ZM59.5556 12.8111C57.4933 12.6152 59.5481 13.2375 59.5556 12.8111V12.8111ZM45.2668 12.8816C44.9245 12.769 45.438 12.9379 45.2668 12.8816V12.8816ZM53.7019 12.8689C53.8702 13.0851 54.219 12.8246 53.7019 12.8689V12.8689ZM57.1408 13.0888C57.1445 12.8757 58.3491 12.8967 57.9994 13.2104C58.6877 13.2224 59.0356 13.0153 60.0663 13.1399C60.0644 13.2465 59.7193 13.2938 59.5453 13.3973C58.857 13.3853 58.1687 13.3733 57.6524 13.3643C57.6552 13.2044 57.485 13.0948 57.1408 13.0888ZM65.0595 13.0671C64.8856 13.1707 64.5405 13.218 64.5386 13.3246C64.1945 13.3186 64.0242 13.209 64.027 13.0491C64.3712 13.0551 64.7154 13.0611 65.0595 13.0671ZM44.2325 12.9701C44.2353 12.8103 44.9217 12.9289 44.2325 12.9701V12.9701ZM57.1408 13.0888C56.9659 13.2457 57.1361 13.3553 57.6524 13.3643C57.4738 13.7343 55.9306 13.3876 55.5874 13.3283C55.5902 13.1684 55.072 13.266 55.0711 13.3192C54.3809 13.4138 55.0674 13.5324 55.0711 13.3192C55.2432 13.3223 55.4153 13.3253 55.5874 13.3283C55.5827 13.5947 55.0646 13.6923 54.033 13.621C54.0358 13.4611 53.5186 13.5054 53.1754 13.4461C53.1726 13.606 53.6898 13.5617 54.033 13.621C53.1642 14.0856 51.7931 13.7418 49.209 13.8566C51.6247 13.5256 53.6981 13.082 57.1408 13.0888ZM44.2325 12.9701C41.654 12.7652 43.5357 13.4378 44.2325 12.9701V12.9701ZM44.2241 13.4498C45.7691 13.69 43.3562 13.8611 43.1804 14.0713C41.6363 13.7778 44.0492 13.6066 44.2241 13.4498ZM45.2538 13.6277C45.2548 13.5744 46.291 13.3792 46.6333 13.4918C46.9756 13.6044 44.7329 13.8851 45.2538 13.6277ZM49.209 13.8566C49.2062 14.0165 48.3449 14.0548 49.2034 14.1764C48.5049 14.7506 47.1486 13.5541 49.209 13.8566ZM40.774 13.8693C41.6354 13.8311 41.4502 14.5741 40.2503 14.2867C40.2522 14.1801 40.254 14.0735 40.2549 14.0202C40.5991 14.0262 40.601 13.9196 40.774 13.8693ZM47.1365 14.2469C46.6203 14.2379 46.104 14.2289 45.5878 14.2199C45.9347 14.066 46.797 13.9745 47.6574 13.9895C47.6547 14.1494 47.3105 14.1433 47.1365 14.2469ZM47.1365 14.2469C47.4761 14.5194 47.8249 14.2589 47.1365 14.2469V14.2469ZM43.6892 14.5066C43.8688 14.0833 45.7515 14.7025 43.6892 14.5066V14.5066ZM50.0564 14.6177C49.8853 14.5615 50.3987 14.7303 50.0564 14.6177V14.6177ZM38.1797 14.5704C38.1825 14.4105 38.8699 14.4758 39.215 14.4285C39.2122 14.5884 38.5248 14.5231 38.1797 14.5704ZM43.6892 14.5066C43.6855 14.7198 42.826 14.6515 42.6511 14.8083C41.2754 14.731 42.6595 14.3287 43.6892 14.5066ZM45.2352 14.6935C45.0659 14.5306 45.9254 14.599 45.2352 14.6935V14.6935ZM48.6769 14.7536C48.6853 14.274 50.7392 14.9495 48.6769 14.7536V14.7536ZM37.1444 14.7122C37.1481 14.4991 38.0067 14.6207 37.1444 14.7122V14.7122ZM45.2352 14.6935C43.173 14.4976 45.0548 15.1702 45.2352 14.6935V14.6935ZM48.6769 14.7536C48.676 14.8069 48.6751 14.8602 48.6741 14.9135C47.8128 14.9517 47.4723 14.7326 48.6769 14.7536ZM37.1444 14.7122C36.9686 14.9224 36.6225 15.023 35.7621 15.0079C35.9379 14.7978 36.456 14.7002 37.1444 14.7122ZM46.6063 15.0373C46.4352 14.981 46.9486 15.1499 46.6063 15.0373V15.0373ZM50.0378 15.6836C50.9038 15.3789 52.7958 15.4652 53.6619 15.1605C55.2041 15.5605 50.5485 16.0124 50.0378 15.6836ZM46.6007 15.3571C46.77 15.5199 47.1161 15.4194 47.117 15.3661C47.2891 15.3691 47.4612 15.3721 47.6333 15.3751C47.4593 15.4787 47.8035 15.4847 48.1477 15.4907C47.2789 15.9553 46.7682 15.6265 45.2194 15.5995C45.0492 15.4899 45.052 15.33 44.7078 15.324C45.0603 14.8504 45.7385 15.4486 46.6007 15.3571ZM46.6007 15.3571C46.6026 15.2505 47.1207 15.1529 47.117 15.3661C46.9449 15.3631 46.7728 15.3601 46.6007 15.3571ZM58.4775 15.4044C58.4728 15.6709 58.8151 15.7835 59.5026 15.8488C59.3277 16.0057 59.1547 16.056 58.4672 15.9907C58.47 15.8308 57.9529 15.8751 57.6096 15.8158C57.6068 15.9756 58.1231 15.9847 58.4672 15.9907C58.4626 16.2571 57.0887 16.0732 57.085 16.2864C56.5696 16.2241 56.3985 16.1678 56.5743 15.9576C56.5771 15.7977 57.2645 15.8631 56.5743 15.9576C55.886 15.9456 55.8822 16.1588 55.0227 16.0905C55.0209 16.1971 55.1911 16.3066 55.5362 16.2594C55.1883 16.4665 54.499 16.5078 53.6377 16.5461C53.6395 16.4395 53.6414 16.3329 53.6433 16.2263C54.513 15.7084 56.0683 15.3624 58.4775 15.4044ZM34.7249 15.2564C34.5538 15.2001 35.0672 15.369 34.7249 15.2564V15.2564ZM45.2194 15.5995C45.2166 15.7594 45.2138 15.9193 45.558 15.9253C44.5199 16.227 43.3125 16.3658 41.5888 16.4957C41.5916 16.3358 41.2484 16.2765 40.7312 16.3208C40.7349 16.1076 40.5638 16.0513 40.2205 15.992C40.5684 15.7849 41.2577 15.7436 42.1191 15.7053C42.1153 15.9185 42.1116 16.1316 42.6269 16.194C43.3162 16.1527 42.4586 15.9778 42.6353 15.7143C42.9795 15.7203 43.3255 15.6197 43.1572 15.4036C44.0176 15.4186 44.186 15.6348 45.2194 15.5995ZM44.1813 15.9012C44.0101 15.8449 44.5236 16.0138 44.1813 15.9012V15.9012ZM42.1191 15.7053C42.12 15.652 42.6381 15.5544 42.6353 15.7143C42.4632 15.7113 42.2911 15.7083 42.1191 15.7053ZM49.5216 15.6746C49.6862 16.1039 48.4816 16.0829 47.6202 16.1212C47.7979 15.8044 49.0025 15.8255 49.5216 15.6746ZM53.1326 15.8975C52.9633 15.7347 53.8228 15.803 53.1326 15.8975V15.8975ZM53.1326 15.8975C53.1298 16.0574 53.473 16.1167 53.6433 16.2263C52.954 16.2676 53.1214 16.5371 53.6377 16.5461C51.0508 16.8208 51.5698 16.6699 49.4974 17.0602C50.022 16.5896 48.8174 16.5686 47.6119 16.6008C47.7784 16.9236 49.8425 17.0129 48.6314 17.3649C47.9439 17.2996 47.9486 17.0332 47.6072 16.8673C46.9161 17.0151 45.7115 16.9941 45.5338 17.3109C45.5282 17.6306 47.0835 17.2846 47.0854 17.178C47.9356 17.7793 43.9748 17.8701 42.5972 17.8993C42.599 17.7927 42.6009 17.6861 42.6028 17.5796C43.2911 17.5916 43.4641 17.5413 43.6381 17.4377C44.4985 17.4527 44.8445 17.3521 45.1924 17.145C44.332 17.13 43.8139 17.2275 43.6381 17.4377C43.1227 17.3754 42.7767 17.476 42.6028 17.5796C42.2586 17.5736 41.9144 17.5675 41.5702 17.5615C44.6799 16.9228 47.7923 16.1242 52.0945 16.1993C52.0982 15.9861 52.2731 15.8292 53.1326 15.8975ZM39.7015 16.1429C39.7033 16.0363 39.7052 15.9297 40.2205 15.992C40.2187 16.0986 40.0457 16.1489 39.7015 16.1429ZM47.6202 16.1212C45.5468 16.5648 43.1302 16.9491 40.7154 17.2268C42.4465 16.6706 44.5199 16.227 47.6202 16.1212ZM39.1824 16.2938C39.1843 16.1872 39.1862 16.0806 39.7015 16.1429C39.7006 16.1962 39.6996 16.2495 39.6987 16.3028C39.5266 16.2998 39.3545 16.2968 39.1824 16.2938ZM38.6634 16.4446C38.6652 16.338 38.8392 16.2345 39.1824 16.2938C39.1815 16.347 39.1806 16.4003 39.1796 16.4536C39.0076 16.4506 38.8355 16.4476 38.6634 16.4446ZM39.6959 16.4626C39.6968 16.4094 39.6978 16.3561 39.6987 16.3028C40.0429 16.3088 40.387 16.3148 40.7312 16.3208C40.5573 16.4244 40.2122 16.4717 39.6959 16.4626ZM37.6281 16.5865C37.8029 16.4296 38.1481 16.3823 38.6634 16.4446C38.6615 16.5512 38.8336 16.5542 39.1768 16.6135C39.001 16.8237 38.1425 16.7021 37.6281 16.5865ZM39.1768 16.6135C39.1778 16.5602 39.1787 16.5069 39.1796 16.4536C39.3517 16.4566 39.5238 16.4596 39.6959 16.4626C39.695 16.5159 39.521 16.6195 39.1768 16.6135ZM41.5888 16.4957C40.8996 16.537 41.7581 16.6586 41.5888 16.4957V16.4957ZM37.6281 16.5865C37.6253 16.7464 37.6225 16.9062 36.763 16.8379C36.7658 16.678 37.283 16.6338 37.6281 16.5865ZM36.763 16.8379C35.9007 16.9295 36.7593 17.0511 36.763 16.8379V16.8379ZM38.1369 17.0218C38.1397 16.862 38.8271 16.9273 38.1369 17.0218V17.0218ZM35.2086 17.1306C35.2114 16.9708 35.8988 17.0361 35.2086 17.1306V17.1306ZM38.1369 17.0218C37.4467 17.1164 38.3053 17.238 38.1369 17.0218V17.0218ZM34.6896 17.2815C34.6914 17.1749 34.8645 17.1246 35.2086 17.1306C35.2068 17.2372 35.2058 17.2905 34.6896 17.2815ZM36.2384 17.3085C36.0672 17.2522 36.5807 17.4211 36.2384 17.3085V17.3085ZM40.7154 17.2268C40.3675 17.4339 40.0215 17.5345 39.161 17.5195C39.3368 17.3093 39.855 17.2117 40.7154 17.2268ZM34.6896 17.2815C33.9994 17.3761 34.6868 17.4414 34.6896 17.2815V17.2815ZM38.1257 17.6613C38.3006 17.5045 38.6457 17.4572 39.161 17.5195C38.9871 17.6231 38.8141 17.6734 38.1257 17.6613ZM41.2233 17.7154C41.2251 17.6088 41.227 17.5022 41.5702 17.5615C41.5693 17.6148 41.5684 17.6681 41.5675 17.7214C41.3954 17.7184 41.2233 17.7154 41.2233 17.7154ZM33.6487 17.7431C33.4785 17.6335 33.9919 17.8024 33.6487 17.7431V17.7431ZM38.1257 17.6613C37.9462 18.0847 37.0811 18.3361 35.7035 18.3654C36.0551 17.9451 37.0895 17.8565 38.1257 17.6613ZM41.2233 17.7154C40.1815 18.2303 37.9425 18.2979 37.0718 18.8691C36.2207 18.3211 39.4996 17.8453 41.2233 17.7154ZM41.5675 17.7214C42.0837 17.7304 42.2539 17.84 42.5972 17.8993C42.5962 17.9526 42.5962 17.9526 42.5953 18.0059C41.3898 18.0382 41.7256 18.5238 40.1777 18.4435C40.3563 18.0734 41.9032 18.2071 41.5675 17.7214ZM42.5953 18.0059C42.9348 18.2784 43.2837 18.0179 42.5953 18.0059V18.0059ZM40.1777 18.4435C40.0029 18.6004 39.6568 18.7009 39.1396 18.7452C39.1434 18.532 39.3182 18.3752 40.1777 18.4435ZM35.1817 18.6761C35.1854 18.463 35.8719 18.5816 35.1817 18.6761V18.6761ZM35.1817 18.6761C34.4915 18.7707 35.1789 18.836 35.1817 18.6761V18.6761ZM39.1396 18.7452C38.4494 18.8398 39.1368 18.9051 39.1396 18.7452V18.7452ZM37.5834 19.1445C37.0662 19.1888 37.4151 18.9284 37.5834 19.1445V19.1445ZM37.5834 19.1445C37.9229 19.417 38.2718 19.1565 37.5834 19.1445V19.1445ZM36.2012 19.4403C36.03 19.384 36.5435 19.5528 36.2012 19.4403V19.4403Z" fill="#E8E6D4"/>
</svg>
